<svg xmlns="http://www.w3.org/2000/svg" xmlns:xlink="http://www.w3.org/1999/xlink" width="500" zoomAndPan="magnify" viewBox="0 0 375 374.999991" height="500" preserveAspectRatio="xMidYMid meet" version="1.0"><defs><g/><clipPath id="c54c5b16cc"><path d="M 97.117188 108.390625 L 153.253906 108.390625 L 153.253906 206.648438 L 97.117188 206.648438 Z M 97.117188 108.390625 " clip-rule="nonzero"/></clipPath><clipPath id="558f7c7c54"><path d="M 159.574219 108.390625 L 215.710938 108.390625 L 215.710938 206.648438 L 159.574219 206.648438 Z M 159.574219 108.390625 " clip-rule="nonzero"/></clipPath><clipPath id="1c15f54eff"><path d="M 221.746094 108.390625 L 277.882812 108.390625 L 277.882812 206.648438 L 221.746094 206.648438 Z M 221.746094 108.390625 " clip-rule="nonzero"/></clipPath><clipPath id="9cf1d3f68a"><path d="M 205 157 L 220 157 L 220 171 L 205 171 Z M 205 157 " clip-rule="nonzero"/></clipPath><clipPath id="72ed3371e2"><path d="M 198.515625 162.546875 L 243.683594 105.515625 L 300.714844 150.683594 L 255.546875 207.714844 Z M 198.515625 162.546875 " clip-rule="nonzero"/></clipPath><clipPath id="0d8257cd31"><path d="M 198.515625 162.546875 L 243.683594 105.515625 L 300.714844 150.683594 L 255.546875 207.714844 Z M 198.515625 162.546875 " clip-rule="nonzero"/></clipPath><clipPath id="540722aa53"><path d="M 198.515625 162.546875 L 243.683594 105.515625 L 300.714844 150.683594 L 255.546875 207.714844 Z M 198.515625 162.546875 " clip-rule="nonzero"/></clipPath><clipPath id="3e3a92d6dd"><path d="M 222 123 L 276 123 L 276 203 L 222 203 Z M 222 123 " clip-rule="nonzero"/></clipPath><clipPath id="c3c4ac0a55"><path d="M 198.515625 162.546875 L 243.683594 105.515625 L 300.714844 150.683594 L 255.546875 207.714844 Z M 198.515625 162.546875 " clip-rule="nonzero"/></clipPath><clipPath id="87181b749e"><path d="M 198.515625 162.546875 L 243.683594 105.515625 L 300.714844 150.683594 L 255.546875 207.714844 Z M 198.515625 162.546875 " clip-rule="nonzero"/></clipPath><clipPath id="e7c7b13315"><path d="M 198.515625 162.546875 L 243.683594 105.515625 L 300.714844 150.683594 L 255.546875 207.714844 Z M 198.515625 162.546875 " clip-rule="nonzero"/></clipPath><clipPath id="abfb225494"><path d="M 147 158 L 155 158 L 155 162 L 147 162 Z M 147 158 " clip-rule="nonzero"/></clipPath><clipPath id="fe2f935f8c"><path d="M 148.9375 128.199219 L 159.597656 191.050781 L 109.3125 199.578125 L 98.65625 136.726562 Z M 148.9375 128.199219 " clip-rule="nonzero"/></clipPath><clipPath id="258c930a56"><path d="M 148.9375 128.199219 L 159.597656 191.050781 L 109.3125 199.578125 L 98.65625 136.726562 Z M 148.9375 128.199219 " clip-rule="nonzero"/></clipPath><clipPath id="223c0a760c"><path d="M 148.9375 128.199219 L 159.597656 191.050781 L 109.3125 199.578125 L 98.65625 136.726562 Z M 148.9375 128.199219 " clip-rule="nonzero"/></clipPath><clipPath id="b27bdc25c3"><path d="M 142 159 L 147 159 L 147 164 L 142 164 Z M 142 159 " clip-rule="nonzero"/></clipPath><clipPath id="eb986c9bee"><path d="M 148.9375 128.199219 L 159.597656 191.050781 L 109.3125 199.578125 L 98.65625 136.726562 Z M 148.9375 128.199219 " clip-rule="nonzero"/></clipPath><clipPath id="71241f8051"><path d="M 148.9375 128.199219 L 159.597656 191.050781 L 109.3125 199.578125 L 98.65625 136.726562 Z M 148.9375 128.199219 " clip-rule="nonzero"/></clipPath><clipPath id="e0b8da3064"><path d="M 148.9375 128.199219 L 159.597656 191.050781 L 109.3125 199.578125 L 98.65625 136.726562 Z M 148.9375 128.199219 " clip-rule="nonzero"/></clipPath><clipPath id="c07b6844ee"><path d="M 127 135 L 141 135 L 141 149 L 127 149 Z M 127 135 " clip-rule="nonzero"/></clipPath><clipPath id="b185f0becd"><path d="M 148.9375 128.199219 L 159.597656 191.050781 L 109.3125 199.578125 L 98.65625 136.726562 Z M 148.9375 128.199219 " clip-rule="nonzero"/></clipPath><clipPath id="75ad2e4a08"><path d="M 148.9375 128.199219 L 159.597656 191.050781 L 109.3125 199.578125 L 98.65625 136.726562 Z M 148.9375 128.199219 " clip-rule="nonzero"/></clipPath><clipPath id="18028fb0ec"><path d="M 148.9375 128.199219 L 159.597656 191.050781 L 109.3125 199.578125 L 98.65625 136.726562 Z M 148.9375 128.199219 " clip-rule="nonzero"/></clipPath><clipPath id="f194836bf7"><path d="M 136 174 L 146 174 L 146 192 L 136 192 Z M 136 174 " clip-rule="nonzero"/></clipPath><clipPath id="bc10b5931e"><path d="M 148.9375 128.199219 L 159.597656 191.050781 L 109.3125 199.578125 L 98.65625 136.726562 Z M 148.9375 128.199219 " clip-rule="nonzero"/></clipPath><clipPath id="729a5a2c4f"><path d="M 148.9375 128.199219 L 159.597656 191.050781 L 109.3125 199.578125 L 98.65625 136.726562 Z M 148.9375 128.199219 " clip-rule="nonzero"/></clipPath><clipPath id="44704a80ff"><path d="M 148.9375 128.199219 L 159.597656 191.050781 L 109.3125 199.578125 L 98.65625 136.726562 Z M 148.9375 128.199219 " clip-rule="nonzero"/></clipPath><clipPath id="02024a69c4"><path d="M 134 149 L 138 149 L 138 152 L 134 152 Z M 134 149 " clip-rule="nonzero"/></clipPath><clipPath id="3cce172ab0"><path d="M 148.9375 128.199219 L 159.597656 191.050781 L 109.3125 199.578125 L 98.65625 136.726562 Z M 148.9375 128.199219 " clip-rule="nonzero"/></clipPath><clipPath id="e8513d1b60"><path d="M 148.9375 128.199219 L 159.597656 191.050781 L 109.3125 199.578125 L 98.65625 136.726562 Z M 148.9375 128.199219 " clip-rule="nonzero"/></clipPath><clipPath id="0dbb6b05af"><path d="M 148.9375 128.199219 L 159.597656 191.050781 L 109.3125 199.578125 L 98.65625 136.726562 Z M 148.9375 128.199219 " clip-rule="nonzero"/></clipPath><clipPath id="41e3e604c9"><path d="M 138 173 L 142 173 L 142 176 L 138 176 Z M 138 173 " clip-rule="nonzero"/></clipPath><clipPath id="a608c39010"><path d="M 148.9375 128.199219 L 159.597656 191.050781 L 109.3125 199.578125 L 98.65625 136.726562 Z M 148.9375 128.199219 " clip-rule="nonzero"/></clipPath><clipPath id="c324599e3d"><path d="M 148.9375 128.199219 L 159.597656 191.050781 L 109.3125 199.578125 L 98.65625 136.726562 Z M 148.9375 128.199219 " clip-rule="nonzero"/></clipPath><clipPath id="fe0aafb625"><path d="M 148.9375 128.199219 L 159.597656 191.050781 L 109.3125 199.578125 L 98.65625 136.726562 Z M 148.9375 128.199219 " clip-rule="nonzero"/></clipPath><clipPath id="99f2f2faeb"><path d="M 139 179 L 143 179 L 143 187 L 139 187 Z M 139 179 " clip-rule="nonzero"/></clipPath><clipPath id="4554857565"><path d="M 148.9375 128.199219 L 159.597656 191.050781 L 109.3125 199.578125 L 98.65625 136.726562 Z M 148.9375 128.199219 " clip-rule="nonzero"/></clipPath><clipPath id="8ab0c4331c"><path d="M 148.9375 128.199219 L 159.597656 191.050781 L 109.3125 199.578125 L 98.65625 136.726562 Z M 148.9375 128.199219 " clip-rule="nonzero"/></clipPath><clipPath id="896fe2476e"><path d="M 148.9375 128.199219 L 159.597656 191.050781 L 109.3125 199.578125 L 98.65625 136.726562 Z M 148.9375 128.199219 " clip-rule="nonzero"/></clipPath><clipPath id="eee93e0259"><path d="M 136 179 L 140 179 L 140 183 L 136 183 Z M 136 179 " clip-rule="nonzero"/></clipPath><clipPath id="fef6e7de69"><path d="M 148.9375 128.199219 L 159.597656 191.050781 L 109.3125 199.578125 L 98.65625 136.726562 Z M 148.9375 128.199219 " clip-rule="nonzero"/></clipPath><clipPath id="b15d1127be"><path d="M 148.9375 128.199219 L 159.597656 191.050781 L 109.3125 199.578125 L 98.65625 136.726562 Z M 148.9375 128.199219 " clip-rule="nonzero"/></clipPath><clipPath id="2bc001d521"><path d="M 148.9375 128.199219 L 159.597656 191.050781 L 109.3125 199.578125 L 98.65625 136.726562 Z M 148.9375 128.199219 " clip-rule="nonzero"/></clipPath><clipPath id="f8de597255"><path d="M 129 142 L 134 142 L 134 146 L 129 146 Z M 129 142 " clip-rule="nonzero"/></clipPath><clipPath id="4b1fada89a"><path d="M 148.9375 128.199219 L 159.597656 191.050781 L 109.3125 199.578125 L 98.65625 136.726562 Z M 148.9375 128.199219 " clip-rule="nonzero"/></clipPath><clipPath id="5883a333bb"><path d="M 148.9375 128.199219 L 159.597656 191.050781 L 109.3125 199.578125 L 98.65625 136.726562 Z M 148.9375 128.199219 " clip-rule="nonzero"/></clipPath><clipPath id="02e1721465"><path d="M 148.9375 128.199219 L 159.597656 191.050781 L 109.3125 199.578125 L 98.65625 136.726562 Z M 148.9375 128.199219 " clip-rule="nonzero"/></clipPath><clipPath id="b40e3ba6dd"><path d="M 130 153 L 143 153 L 143 172 L 130 172 Z M 130 153 " clip-rule="nonzero"/></clipPath><clipPath id="a3565c87d3"><path d="M 148.9375 128.199219 L 159.597656 191.050781 L 109.3125 199.578125 L 98.65625 136.726562 Z M 148.9375 128.199219 " clip-rule="nonzero"/></clipPath><clipPath id="8b04356a7d"><path d="M 148.9375 128.199219 L 159.597656 191.050781 L 109.3125 199.578125 L 98.65625 136.726562 Z M 148.9375 128.199219 " clip-rule="nonzero"/></clipPath><clipPath id="10729dfe3b"><path d="M 148.9375 128.199219 L 159.597656 191.050781 L 109.3125 199.578125 L 98.65625 136.726562 Z M 148.9375 128.199219 " clip-rule="nonzero"/></clipPath><clipPath id="1ad799e95b"><path d="M 132 176 L 136 176 L 136 180 L 132 180 Z M 132 176 " clip-rule="nonzero"/></clipPath><clipPath id="9980d8e335"><path d="M 148.9375 128.199219 L 159.597656 191.050781 L 109.3125 199.578125 L 98.65625 136.726562 Z M 148.9375 128.199219 " clip-rule="nonzero"/></clipPath><clipPath id="d734c834ad"><path d="M 148.9375 128.199219 L 159.597656 191.050781 L 109.3125 199.578125 L 98.65625 136.726562 Z M 148.9375 128.199219 " clip-rule="nonzero"/></clipPath><clipPath id="ae6cbaa2ec"><path d="M 148.9375 128.199219 L 159.597656 191.050781 L 109.3125 199.578125 L 98.65625 136.726562 Z M 148.9375 128.199219 " clip-rule="nonzero"/></clipPath><clipPath id="68e168ccae"><path d="M 133 184 L 138 184 L 138 188 L 133 188 Z M 133 184 " clip-rule="nonzero"/></clipPath><clipPath id="d401630ffb"><path d="M 148.9375 128.199219 L 159.597656 191.050781 L 109.3125 199.578125 L 98.65625 136.726562 Z M 148.9375 128.199219 " clip-rule="nonzero"/></clipPath><clipPath id="9a33814343"><path d="M 148.9375 128.199219 L 159.597656 191.050781 L 109.3125 199.578125 L 98.65625 136.726562 Z M 148.9375 128.199219 " clip-rule="nonzero"/></clipPath><clipPath id="d4a44b11d2"><path d="M 148.9375 128.199219 L 159.597656 191.050781 L 109.3125 199.578125 L 98.65625 136.726562 Z M 148.9375 128.199219 " clip-rule="nonzero"/></clipPath><clipPath id="90f125d68b"><path d="M 126 139 L 130 139 L 130 144 L 126 144 Z M 126 139 " clip-rule="nonzero"/></clipPath><clipPath id="38e0537e63"><path d="M 148.9375 128.199219 L 159.597656 191.050781 L 109.3125 199.578125 L 98.65625 136.726562 Z M 148.9375 128.199219 " clip-rule="nonzero"/></clipPath><clipPath id="e74c6a120a"><path d="M 148.9375 128.199219 L 159.597656 191.050781 L 109.3125 199.578125 L 98.65625 136.726562 Z M 148.9375 128.199219 " clip-rule="nonzero"/></clipPath><clipPath id="ddbc96a9cd"><path d="M 148.9375 128.199219 L 159.597656 191.050781 L 109.3125 199.578125 L 98.65625 136.726562 Z M 148.9375 128.199219 " clip-rule="nonzero"/></clipPath><clipPath id="0bd1b67a56"><path d="M 109 181 L 136 181 L 136 198 L 109 198 Z M 109 181 " clip-rule="nonzero"/></clipPath><clipPath id="709bcb6f23"><path d="M 148.9375 128.199219 L 159.597656 191.050781 L 109.3125 199.578125 L 98.65625 136.726562 Z M 148.9375 128.199219 " clip-rule="nonzero"/></clipPath><clipPath id="599dde5dc9"><path d="M 148.9375 128.199219 L 159.597656 191.050781 L 109.3125 199.578125 L 98.65625 136.726562 Z M 148.9375 128.199219 " clip-rule="nonzero"/></clipPath><clipPath id="f3e09bc120"><path d="M 148.9375 128.199219 L 159.597656 191.050781 L 109.3125 199.578125 L 98.65625 136.726562 Z M 148.9375 128.199219 " clip-rule="nonzero"/></clipPath><clipPath id="86d98a977c"><path d="M 127 145 L 131 145 L 131 151 L 127 151 Z M 127 145 " clip-rule="nonzero"/></clipPath><clipPath id="d13fcf516d"><path d="M 148.9375 128.199219 L 159.597656 191.050781 L 109.3125 199.578125 L 98.65625 136.726562 Z M 148.9375 128.199219 " clip-rule="nonzero"/></clipPath><clipPath id="34e604bfc1"><path d="M 148.9375 128.199219 L 159.597656 191.050781 L 109.3125 199.578125 L 98.65625 136.726562 Z M 148.9375 128.199219 " clip-rule="nonzero"/></clipPath><clipPath id="9909919a0b"><path d="M 148.9375 128.199219 L 159.597656 191.050781 L 109.3125 199.578125 L 98.65625 136.726562 Z M 148.9375 128.199219 " clip-rule="nonzero"/></clipPath><clipPath id="bada9f17de"><path d="M 118 150 L 129 150 L 129 160 L 118 160 Z M 118 150 " clip-rule="nonzero"/></clipPath><clipPath id="0c0a583d81"><path d="M 148.9375 128.199219 L 159.597656 191.050781 L 109.3125 199.578125 L 98.65625 136.726562 Z M 148.9375 128.199219 " clip-rule="nonzero"/></clipPath><clipPath id="93ebc5d5e5"><path d="M 148.9375 128.199219 L 159.597656 191.050781 L 109.3125 199.578125 L 98.65625 136.726562 Z M 148.9375 128.199219 " clip-rule="nonzero"/></clipPath><clipPath id="a52880e53c"><path d="M 148.9375 128.199219 L 159.597656 191.050781 L 109.3125 199.578125 L 98.65625 136.726562 Z M 148.9375 128.199219 " clip-rule="nonzero"/></clipPath><clipPath id="fe261f8ed2"><path d="M 121 169 L 132 169 L 132 179 L 121 179 Z M 121 169 " clip-rule="nonzero"/></clipPath><clipPath id="58995f69c1"><path d="M 148.9375 128.199219 L 159.597656 191.050781 L 109.3125 199.578125 L 98.65625 136.726562 Z M 148.9375 128.199219 " clip-rule="nonzero"/></clipPath><clipPath id="10509805d5"><path d="M 148.9375 128.199219 L 159.597656 191.050781 L 109.3125 199.578125 L 98.65625 136.726562 Z M 148.9375 128.199219 " clip-rule="nonzero"/></clipPath><clipPath id="c5be5410db"><path d="M 148.9375 128.199219 L 159.597656 191.050781 L 109.3125 199.578125 L 98.65625 136.726562 Z M 148.9375 128.199219 " clip-rule="nonzero"/></clipPath><clipPath id="db49098ed9"><path d="M 123 143 L 128 143 L 128 148 L 123 148 Z M 123 143 " clip-rule="nonzero"/></clipPath><clipPath id="4f992ef24e"><path d="M 148.9375 128.199219 L 159.597656 191.050781 L 109.3125 199.578125 L 98.65625 136.726562 Z M 148.9375 128.199219 " clip-rule="nonzero"/></clipPath><clipPath id="c6846c3d27"><path d="M 148.9375 128.199219 L 159.597656 191.050781 L 109.3125 199.578125 L 98.65625 136.726562 Z M 148.9375 128.199219 " clip-rule="nonzero"/></clipPath><clipPath id="fda4aab2ca"><path d="M 148.9375 128.199219 L 159.597656 191.050781 L 109.3125 199.578125 L 98.65625 136.726562 Z M 148.9375 128.199219 " clip-rule="nonzero"/></clipPath><clipPath id="61867520c0"><path d="M 127 160 L 129 160 L 129 162 L 127 162 Z M 127 160 " clip-rule="nonzero"/></clipPath><clipPath id="538332d2de"><path d="M 148.9375 128.199219 L 159.597656 191.050781 L 109.3125 199.578125 L 98.65625 136.726562 Z M 148.9375 128.199219 " clip-rule="nonzero"/></clipPath><clipPath id="ada674894f"><path d="M 148.9375 128.199219 L 159.597656 191.050781 L 109.3125 199.578125 L 98.65625 136.726562 Z M 148.9375 128.199219 " clip-rule="nonzero"/></clipPath><clipPath id="72adebc997"><path d="M 148.9375 128.199219 L 159.597656 191.050781 L 109.3125 199.578125 L 98.65625 136.726562 Z M 148.9375 128.199219 " clip-rule="nonzero"/></clipPath><clipPath id="6bcd74ac67"><path d="M 127 163 L 129 163 L 129 165 L 127 165 Z M 127 163 " clip-rule="nonzero"/></clipPath><clipPath id="a123147aa4"><path d="M 148.9375 128.199219 L 159.597656 191.050781 L 109.3125 199.578125 L 98.65625 136.726562 Z M 148.9375 128.199219 " clip-rule="nonzero"/></clipPath><clipPath id="325204d08a"><path d="M 148.9375 128.199219 L 159.597656 191.050781 L 109.3125 199.578125 L 98.65625 136.726562 Z M 148.9375 128.199219 " clip-rule="nonzero"/></clipPath><clipPath id="ba45643059"><path d="M 148.9375 128.199219 L 159.597656 191.050781 L 109.3125 199.578125 L 98.65625 136.726562 Z M 148.9375 128.199219 " clip-rule="nonzero"/></clipPath><clipPath id="4c8f994ed3"><path d="M 128 166 L 130 166 L 130 168 L 128 168 Z M 128 166 " clip-rule="nonzero"/></clipPath><clipPath id="26a28eadbb"><path d="M 148.9375 128.199219 L 159.597656 191.050781 L 109.3125 199.578125 L 98.65625 136.726562 Z M 148.9375 128.199219 " clip-rule="nonzero"/></clipPath><clipPath id="7094631a64"><path d="M 148.9375 128.199219 L 159.597656 191.050781 L 109.3125 199.578125 L 98.65625 136.726562 Z M 148.9375 128.199219 " clip-rule="nonzero"/></clipPath><clipPath id="8ca85fadef"><path d="M 148.9375 128.199219 L 159.597656 191.050781 L 109.3125 199.578125 L 98.65625 136.726562 Z M 148.9375 128.199219 " clip-rule="nonzero"/></clipPath><clipPath id="1d3482ef65"><path d="M 129 180 L 134 180 L 134 185 L 129 185 Z M 129 180 " clip-rule="nonzero"/></clipPath><clipPath id="f132c5eb10"><path d="M 148.9375 128.199219 L 159.597656 191.050781 L 109.3125 199.578125 L 98.65625 136.726562 Z M 148.9375 128.199219 " clip-rule="nonzero"/></clipPath><clipPath id="e0e25f1abc"><path d="M 148.9375 128.199219 L 159.597656 191.050781 L 109.3125 199.578125 L 98.65625 136.726562 Z M 148.9375 128.199219 " clip-rule="nonzero"/></clipPath><clipPath id="c1965a969f"><path d="M 148.9375 128.199219 L 159.597656 191.050781 L 109.3125 199.578125 L 98.65625 136.726562 Z M 148.9375 128.199219 " clip-rule="nonzero"/></clipPath><clipPath id="968ea1e8b9"><path d="M 126 164 L 128 164 L 128 167 L 126 167 Z M 126 164 " clip-rule="nonzero"/></clipPath><clipPath id="a247cf1f75"><path d="M 148.9375 128.199219 L 159.597656 191.050781 L 109.3125 199.578125 L 98.65625 136.726562 Z M 148.9375 128.199219 " clip-rule="nonzero"/></clipPath><clipPath id="8fcb5a0dc4"><path d="M 148.9375 128.199219 L 159.597656 191.050781 L 109.3125 199.578125 L 98.65625 136.726562 Z M 148.9375 128.199219 " clip-rule="nonzero"/></clipPath><clipPath id="f2a2d86857"><path d="M 148.9375 128.199219 L 159.597656 191.050781 L 109.3125 199.578125 L 98.65625 136.726562 Z M 148.9375 128.199219 " clip-rule="nonzero"/></clipPath><clipPath id="8cabba18ef"><path d="M 125 162 L 128 162 L 128 164 L 125 164 Z M 125 162 " clip-rule="nonzero"/></clipPath><clipPath id="d4ca92384b"><path d="M 148.9375 128.199219 L 159.597656 191.050781 L 109.3125 199.578125 L 98.65625 136.726562 Z M 148.9375 128.199219 " clip-rule="nonzero"/></clipPath><clipPath id="b75331bc71"><path d="M 148.9375 128.199219 L 159.597656 191.050781 L 109.3125 199.578125 L 98.65625 136.726562 Z M 148.9375 128.199219 " clip-rule="nonzero"/></clipPath><clipPath id="1bd7953065"><path d="M 148.9375 128.199219 L 159.597656 191.050781 L 109.3125 199.578125 L 98.65625 136.726562 Z M 148.9375 128.199219 " clip-rule="nonzero"/></clipPath><clipPath id="c507b819eb"><path d="M 124 171 L 129 171 L 129 177 L 124 177 Z M 124 171 " clip-rule="nonzero"/></clipPath><clipPath id="6399d291e1"><path d="M 148.9375 128.199219 L 159.597656 191.050781 L 109.3125 199.578125 L 98.65625 136.726562 Z M 148.9375 128.199219 " clip-rule="nonzero"/></clipPath><clipPath id="00a0d6f431"><path d="M 148.9375 128.199219 L 159.597656 191.050781 L 109.3125 199.578125 L 98.65625 136.726562 Z M 148.9375 128.199219 " clip-rule="nonzero"/></clipPath><clipPath id="b2c133eea3"><path d="M 148.9375 128.199219 L 159.597656 191.050781 L 109.3125 199.578125 L 98.65625 136.726562 Z M 148.9375 128.199219 " clip-rule="nonzero"/></clipPath><clipPath id="e912553fda"><path d="M 121 152 L 126 152 L 126 158 L 121 158 Z M 121 152 " clip-rule="nonzero"/></clipPath><clipPath id="ad07e706d6"><path d="M 148.9375 128.199219 L 159.597656 191.050781 L 109.3125 199.578125 L 98.65625 136.726562 Z M 148.9375 128.199219 " clip-rule="nonzero"/></clipPath><clipPath id="6cfe1903e7"><path d="M 148.9375 128.199219 L 159.597656 191.050781 L 109.3125 199.578125 L 98.65625 136.726562 Z M 148.9375 128.199219 " clip-rule="nonzero"/></clipPath><clipPath id="df8fd6e907"><path d="M 148.9375 128.199219 L 159.597656 191.050781 L 109.3125 199.578125 L 98.65625 136.726562 Z M 148.9375 128.199219 " clip-rule="nonzero"/></clipPath><clipPath id="73432bf845"><path d="M 121 163 L 125 163 L 125 167 L 121 167 Z M 121 163 " clip-rule="nonzero"/></clipPath><clipPath id="a6c6109d3d"><path d="M 148.9375 128.199219 L 159.597656 191.050781 L 109.3125 199.578125 L 98.65625 136.726562 Z M 148.9375 128.199219 " clip-rule="nonzero"/></clipPath><clipPath id="5cfc039407"><path d="M 148.9375 128.199219 L 159.597656 191.050781 L 109.3125 199.578125 L 98.65625 136.726562 Z M 148.9375 128.199219 " clip-rule="nonzero"/></clipPath><clipPath id="0fa116944a"><path d="M 148.9375 128.199219 L 159.597656 191.050781 L 109.3125 199.578125 L 98.65625 136.726562 Z M 148.9375 128.199219 " clip-rule="nonzero"/></clipPath><clipPath id="ed5b808500"><path d="M 100 145 L 120 145 L 120 191 L 100 191 Z M 100 145 " clip-rule="nonzero"/></clipPath><clipPath id="f86c40731a"><path d="M 148.9375 128.199219 L 159.597656 191.050781 L 109.3125 199.578125 L 98.65625 136.726562 Z M 148.9375 128.199219 " clip-rule="nonzero"/></clipPath><clipPath id="5952409e64"><path d="M 148.9375 128.199219 L 159.597656 191.050781 L 109.3125 199.578125 L 98.65625 136.726562 Z M 148.9375 128.199219 " clip-rule="nonzero"/></clipPath><clipPath id="6046f7a00a"><path d="M 148.9375 128.199219 L 159.597656 191.050781 L 109.3125 199.578125 L 98.65625 136.726562 Z M 148.9375 128.199219 " clip-rule="nonzero"/></clipPath><clipPath id="bceefd15df"><path d="M 101 135 L 127 135 L 127 151 L 101 151 Z M 101 135 " clip-rule="nonzero"/></clipPath><clipPath id="3d4c26cfb9"><path d="M 148.9375 128.199219 L 159.597656 191.050781 L 109.3125 199.578125 L 98.65625 136.726562 Z M 148.9375 128.199219 " clip-rule="nonzero"/></clipPath><clipPath id="ca3a91a6c9"><path d="M 148.9375 128.199219 L 159.597656 191.050781 L 109.3125 199.578125 L 98.65625 136.726562 Z M 148.9375 128.199219 " clip-rule="nonzero"/></clipPath><clipPath id="a7536f1533"><path d="M 148.9375 128.199219 L 159.597656 191.050781 L 109.3125 199.578125 L 98.65625 136.726562 Z M 148.9375 128.199219 " clip-rule="nonzero"/></clipPath><clipPath id="2cc79d083b"><path d="M 160 119 L 210 119 L 210 202 L 160 202 Z M 160 119 " clip-rule="nonzero"/></clipPath><clipPath id="5dde68c198"><path d="M 148.058594 190.515625 L 168.339844 112.097656 L 215.539062 124.304688 L 195.257812 202.722656 Z M 148.058594 190.515625 " clip-rule="nonzero"/></clipPath><clipPath id="7330eda692"><path d="M 148.058594 190.515625 L 168.339844 112.097656 L 215.539062 124.304688 L 195.257812 202.722656 Z M 148.058594 190.515625 " clip-rule="nonzero"/></clipPath><clipPath id="76eb9604d3"><path d="M 148.058594 190.515625 L 168.339844 112.097656 L 215.539062 124.304688 L 195.257812 202.722656 Z M 148.058594 190.515625 " clip-rule="nonzero"/></clipPath></defs><g clip-path="url(#c54c5b16cc)"><path fill="#ffffff" d="M 97.117188 108.390625 L 153.253906 108.390625 L 153.253906 206.632812 L 97.117188 206.632812 Z M 97.117188 108.390625 " fill-opacity="1" fill-rule="nonzero"/></g><g fill="#ffffff" fill-opacity="1"><g transform="translate(67.122276, 243.82979)"><g><path d="M 2.46875 0 L 2.46875 -28.328125 L 13.640625 -28.328125 C 15.785156 -28.328125 17.613281 -27.914062 19.125 -27.09375 C 20.644531 -26.28125 21.800781 -25.148438 22.59375 -23.703125 C 23.394531 -22.265625 23.796875 -20.609375 23.796875 -18.734375 C 23.796875 -16.847656 23.390625 -15.1875 22.578125 -13.75 C 21.765625 -12.320312 20.585938 -11.203125 19.046875 -10.390625 C 17.515625 -9.585938 15.660156 -9.1875 13.484375 -9.1875 L 8.453125 -9.1875 L 8.453125 0 Z M 8.453125 -13.984375 L 12.515625 -13.984375 C 14.234375 -13.984375 15.515625 -14.421875 16.359375 -15.296875 C 17.203125 -16.179688 17.625 -17.328125 17.625 -18.734375 C 17.625 -20.140625 17.203125 -21.273438 16.359375 -22.140625 C 15.515625 -23.003906 14.222656 -23.4375 12.484375 -23.4375 L 8.453125 -23.4375 Z M 8.453125 -13.984375 "/></g></g></g><g fill="#ffffff" fill-opacity="1"><g transform="translate(96.978871, 243.82979)"><g><path d="M 8.453125 -28.328125 L 8.453125 0 L 2.46875 0 L 2.46875 -28.328125 Z M 8.453125 -28.328125 "/></g></g></g><g fill="#ffffff" fill-opacity="1"><g transform="translate(112.538314, 243.82979)"><g><path d="M 26.15625 -28.328125 L 26.15625 0 L 20.984375 0 L 8.65625 -17.828125 L 8.453125 -17.828125 L 8.453125 0 L 2.46875 0 L 2.46875 -28.328125 L 7.71875 -28.328125 L 19.953125 -10.515625 L 20.203125 -10.515625 L 20.203125 -28.328125 Z M 26.15625 -28.328125 "/></g></g></g><g fill="#ffffff" fill-opacity="1"><g transform="translate(145.796352, 243.82979)"><g><path d="M 21.25 -19.171875 C 20.875 -20.503906 20.175781 -21.546875 19.15625 -22.296875 C 18.132812 -23.046875 16.851562 -23.421875 15.3125 -23.421875 C 13.144531 -23.421875 11.390625 -22.617188 10.046875 -21.015625 C 8.703125 -19.421875 8.03125 -17.144531 8.03125 -14.1875 C 8.03125 -11.226562 8.691406 -8.941406 10.015625 -7.328125 C 11.335938 -5.710938 13.125 -4.90625 15.375 -4.90625 C 17.363281 -4.90625 18.925781 -5.421875 20.0625 -6.453125 C 21.195312 -7.492188 21.785156 -8.894531 21.828125 -10.65625 L 15.734375 -10.65625 L 15.734375 -15.15625 L 27.59375 -15.15625 L 27.59375 -11.59375 C 27.59375 -9.113281 27.066406 -6.972656 26.015625 -5.171875 C 24.960938 -3.378906 23.515625 -2.003906 21.671875 -1.046875 C 19.835938 -0.0859375 17.726562 0.390625 15.34375 0.390625 C 12.6875 0.390625 10.351562 -0.195312 8.34375 -1.375 C 6.332031 -2.550781 4.765625 -4.222656 3.640625 -6.390625 C 2.523438 -8.566406 1.96875 -11.148438 1.96875 -14.140625 C 1.96875 -17.203125 2.550781 -19.820312 3.71875 -22 C 4.894531 -24.175781 6.484375 -25.835938 8.484375 -26.984375 C 10.484375 -28.140625 12.726562 -28.71875 15.21875 -28.71875 C 17.351562 -28.71875 19.285156 -28.3125 21.015625 -27.5 C 22.753906 -26.6875 24.175781 -25.5625 25.28125 -24.125 C 26.394531 -22.695312 27.078125 -21.046875 27.328125 -19.171875 Z M 21.25 -19.171875 "/></g></g></g><g fill="#ffffff" fill-opacity="1"><g transform="translate(180.049937, 243.82979)"><g><path d="M 2.46875 0 L 2.46875 -28.328125 L 13.640625 -28.328125 C 15.785156 -28.328125 17.613281 -27.914062 19.125 -27.09375 C 20.644531 -26.28125 21.800781 -25.148438 22.59375 -23.703125 C 23.394531 -22.265625 23.796875 -20.609375 23.796875 -18.734375 C 23.796875 -16.847656 23.390625 -15.1875 22.578125 -13.75 C 21.765625 -12.320312 20.585938 -11.203125 19.046875 -10.390625 C 17.515625 -9.585938 15.660156 -9.1875 13.484375 -9.1875 L 8.453125 -9.1875 L 8.453125 0 Z M 8.453125 -13.984375 L 12.515625 -13.984375 C 14.234375 -13.984375 15.515625 -14.421875 16.359375 -15.296875 C 17.203125 -16.179688 17.625 -17.328125 17.625 -18.734375 C 17.625 -20.140625 17.203125 -21.273438 16.359375 -22.140625 C 15.515625 -23.003906 14.222656 -23.4375 12.484375 -23.4375 L 8.453125 -23.4375 Z M 8.453125 -13.984375 "/></g></g></g><g fill="#ffffff" fill-opacity="1"><g transform="translate(209.906541, 243.82979)"><g><path d="M 28.5 -14.171875 C 28.5 -11.078125 27.914062 -8.445312 26.75 -6.28125 C 25.582031 -4.113281 24 -2.457031 22 -1.3125 C 20 -0.175781 17.742188 0.390625 15.234375 0.390625 C 12.710938 0.390625 10.453125 -0.179688 8.453125 -1.328125 C 6.453125 -2.472656 4.867188 -4.128906 3.703125 -6.296875 C 2.546875 -8.472656 1.96875 -11.097656 1.96875 -14.171875 C 1.96875 -17.253906 2.546875 -19.878906 3.703125 -22.046875 C 4.867188 -24.210938 6.453125 -25.863281 8.453125 -27 C 10.453125 -28.144531 12.710938 -28.71875 15.234375 -28.71875 C 17.742188 -28.71875 20 -28.144531 22 -27 C 24 -25.863281 25.582031 -24.210938 26.75 -22.046875 C 27.914062 -19.878906 28.5 -17.253906 28.5 -14.171875 Z M 22.421875 -14.171875 C 22.421875 -17.171875 21.765625 -19.460938 20.453125 -21.046875 C 19.148438 -22.628906 17.410156 -23.421875 15.234375 -23.421875 C 13.054688 -23.421875 11.3125 -22.628906 10 -21.046875 C 8.6875 -19.460938 8.03125 -17.171875 8.03125 -14.171875 C 8.03125 -11.171875 8.6875 -8.875 10 -7.28125 C 11.3125 -5.695312 13.054688 -4.90625 15.234375 -4.90625 C 17.410156 -4.90625 19.148438 -5.695312 20.453125 -7.28125 C 21.765625 -8.875 22.421875 -11.171875 22.421875 -14.171875 Z M 22.421875 -14.171875 "/></g></g></g><g fill="#ffffff" fill-opacity="1"><g transform="translate(244.989731, 243.82979)"><g><path d="M 26.15625 -28.328125 L 26.15625 0 L 20.984375 0 L 8.65625 -17.828125 L 8.453125 -17.828125 L 8.453125 0 L 2.46875 0 L 2.46875 -28.328125 L 7.71875 -28.328125 L 19.953125 -10.515625 L 20.203125 -10.515625 L 20.203125 -28.328125 Z M 26.15625 -28.328125 "/></g></g></g><g fill="#ffffff" fill-opacity="1"><g transform="translate(278.247776, 243.82979)"><g><path d="M 21.25 -19.171875 C 20.875 -20.503906 20.175781 -21.546875 19.15625 -22.296875 C 18.132812 -23.046875 16.851562 -23.421875 15.3125 -23.421875 C 13.144531 -23.421875 11.390625 -22.617188 10.046875 -21.015625 C 8.703125 -19.421875 8.03125 -17.144531 8.03125 -14.1875 C 8.03125 -11.226562 8.691406 -8.941406 10.015625 -7.328125 C 11.335938 -5.710938 13.125 -4.90625 15.375 -4.90625 C 17.363281 -4.90625 18.925781 -5.421875 20.0625 -6.453125 C 21.195312 -7.492188 21.785156 -8.894531 21.828125 -10.65625 L 15.734375 -10.65625 L 15.734375 -15.15625 L 27.59375 -15.15625 L 27.59375 -11.59375 C 27.59375 -9.113281 27.066406 -6.972656 26.015625 -5.171875 C 24.960938 -3.378906 23.515625 -2.003906 21.671875 -1.046875 C 19.835938 -0.0859375 17.726562 0.390625 15.34375 0.390625 C 12.6875 0.390625 10.351562 -0.195312 8.34375 -1.375 C 6.332031 -2.550781 4.765625 -4.222656 3.640625 -6.390625 C 2.523438 -8.566406 1.96875 -11.148438 1.96875 -14.140625 C 1.96875 -17.203125 2.550781 -19.820312 3.71875 -22 C 4.894531 -24.175781 6.484375 -25.835938 8.484375 -26.984375 C 10.484375 -28.140625 12.726562 -28.71875 15.21875 -28.71875 C 17.351562 -28.71875 19.285156 -28.3125 21.015625 -27.5 C 22.753906 -26.6875 24.175781 -25.5625 25.28125 -24.125 C 26.394531 -22.695312 27.078125 -21.046875 27.328125 -19.171875 Z M 21.25 -19.171875 "/></g></g></g><g clip-path="url(#558f7c7c54)"><path fill="#ffffff" d="M 159.574219 108.390625 L 215.710938 108.390625 L 215.710938 206.632812 L 159.574219 206.632812 Z M 159.574219 108.390625 " fill-opacity="1" fill-rule="nonzero"/></g><g clip-path="url(#1c15f54eff)"><path fill="#ffffff" d="M 221.746094 108.390625 L 277.882812 108.390625 L 277.882812 206.632812 L 221.746094 206.632812 Z M 221.746094 108.390625 " fill-opacity="1" fill-rule="nonzero"/></g><g clip-path="url(#9cf1d3f68a)"><g clip-path="url(#72ed3371e2)"><g clip-path="url(#0d8257cd31)"><g clip-path="url(#540722aa53)"><path fill="#000000" d="M 216.710938 158.652344 C 217.054688 158.925781 217.367188 159.226562 217.652344 159.5625 C 217.9375 159.894531 218.183594 160.253906 218.398438 160.636719 C 218.613281 161.019531 218.785156 161.421875 218.917969 161.835938 C 219.054688 162.253906 219.148438 162.679688 219.199219 163.117188 C 219.246094 163.550781 219.253906 163.988281 219.21875 164.425781 C 219.183594 164.859375 219.105469 165.289062 218.988281 165.710938 C 218.867188 166.132812 218.707031 166.539062 218.507812 166.929688 C 218.308594 167.320312 218.070312 167.6875 217.800781 168.03125 C 217.527344 168.371094 217.226562 168.6875 216.890625 168.96875 C 216.558594 169.253906 216.199219 169.503906 215.816406 169.714844 C 215.433594 169.929688 215.03125 170.101562 214.617188 170.238281 C 214.199219 170.371094 213.773438 170.464844 213.335938 170.515625 C 212.902344 170.566406 212.464844 170.574219 212.027344 170.539062 C 211.59375 170.503906 211.164062 170.425781 210.742188 170.304688 C 210.320312 170.183594 209.914062 170.027344 209.523438 169.824219 C 209.132812 169.625 208.765625 169.390625 208.425781 169.117188 C 208.082031 168.84375 207.765625 168.542969 207.484375 168.207031 C 207.199219 167.875 206.949219 167.515625 206.738281 167.132812 C 206.523438 166.75 206.351562 166.351562 206.214844 165.933594 C 206.082031 165.515625 205.988281 165.089844 205.9375 164.65625 C 205.886719 164.21875 205.878906 163.785156 205.914062 163.347656 C 205.949219 162.910156 206.027344 162.480469 206.148438 162.058594 C 206.269531 161.636719 206.429688 161.230469 206.628906 160.84375 C 206.828125 160.453125 207.0625 160.085938 207.335938 159.742188 C 207.609375 159.398438 207.910156 159.085938 208.246094 158.800781 C 208.578125 158.515625 208.9375 158.269531 209.320312 158.054688 C 209.703125 157.839844 210.101562 157.667969 210.519531 157.535156 C 210.9375 157.398438 211.363281 157.304688 211.796875 157.253906 C 212.234375 157.207031 212.667969 157.199219 213.105469 157.234375 C 213.542969 157.269531 213.972656 157.347656 214.394531 157.464844 C 214.816406 157.585938 215.222656 157.746094 215.609375 157.945312 C 216 158.144531 216.367188 158.382812 216.710938 158.652344 Z M 216.710938 158.652344 " fill-opacity="1" fill-rule="nonzero"/></g></g></g></g><g clip-path="url(#3e3a92d6dd)"><g clip-path="url(#c3c4ac0a55)"><g clip-path="url(#87181b749e)"><g clip-path="url(#e7c7b13315)"><path fill="#000000" d="M 233.355469 173.113281 L 269.453125 168.921875 C 267.589844 171.277344 264.992188 173.476562 262.34375 175.210938 C 261.253906 176.050781 257.828125 179.296875 257.894531 181.902344 C 258.601562 188 260.769531 194.398438 261.097656 197.210938 C 261.421875 200.023438 259.035156 201.964844 254.816406 202.453125 C 251.066406 202.890625 247.828125 201.601562 247.503906 198.789062 C 247.644531 195.921875 248.027344 188.988281 247.582031 183.101562 C 247.253906 180.289062 242.449219 177.757812 241.71875 177.605469 C 238.535156 176.789062 235.710938 174.976562 233.355469 173.113281 Z M 245.882812 123.433594 C 228.273438 125.242188 221.578125 141.222656 223.003906 155.546875 C 223.601562 160.703125 225.605469 165.699219 229.117188 169.328125 L 272.714844 164.265625 C 275.035156 159.722656 276.105469 154.609375 275.507812 149.453125 C 273.613281 135.179688 263.433594 121.160156 245.882812 123.433594 Z M 245.882812 123.433594 " fill-opacity="1" fill-rule="nonzero"/></g></g></g></g><g clip-path="url(#abfb225494)"><g clip-path="url(#fe2f935f8c)"><g clip-path="url(#258c930a56)"><g clip-path="url(#223c0a760c)"><path fill="#000000" d="M 147.792969 159.757812 C 147.761719 159.761719 147.75 159.78125 147.753906 159.8125 L 148.023438 161.449219 C 148.027344 161.488281 148.046875 161.503906 148.085938 161.5 C 148.097656 161.496094 148.113281 161.496094 148.125 161.488281 C 149.890625 161.191406 151.664062 160.890625 153.453125 160.585938 C 153.972656 160.496094 154.316406 160.007812 154.167969 159.492188 C 153.949219 158.722656 153.117188 158.820312 152.445312 158.96875 Z M 147.792969 159.757812 " fill-opacity="1" fill-rule="nonzero"/></g></g></g></g><g clip-path="url(#b27bdc25c3)"><g clip-path="url(#eb986c9bee)"><g clip-path="url(#71241f8051)"><g clip-path="url(#e0b8da3064)"><path fill="#000000" d="M 142.335938 159.875 L 142.738281 162.199219 L 142.902344 163.171875 C 142.910156 163.199219 142.929688 163.214844 142.957031 163.210938 C 143.785156 163.0625 144.613281 162.914062 145.433594 162.769531 C 145.863281 162.691406 146.15625 162.597656 146.316406 162.480469 C 146.632812 162.25 146.730469 161.917969 146.609375 161.476562 L 146.285156 159.679688 C 146.28125 159.65625 146.269531 159.628906 146.25 159.609375 C 146.019531 159.359375 145.757812 159.257812 145.460938 159.304688 C 144.425781 159.476562 143.390625 159.652344 142.363281 159.832031 C 142.34375 159.835938 142.332031 159.851562 142.335938 159.875 Z M 142.335938 159.875 " fill-opacity="1" fill-rule="nonzero"/></g></g></g></g><g clip-path="url(#c07b6844ee)"><g clip-path="url(#b185f0becd)"><g clip-path="url(#75ad2e4a08)"><g clip-path="url(#18028fb0ec)"><path fill="#000000" d="M 127.15625 135.453125 C 127.15625 135.457031 127.160156 135.460938 127.164062 135.460938 C 127.910156 135.550781 128.617188 135.710938 129.273438 135.945312 C 129.902344 136.171875 130.707031 136.523438 131.699219 137 C 132.308594 137.296875 133.003906 137.777344 133.789062 138.449219 C 133.984375 138.582031 134.171875 138.730469 134.335938 138.898438 C 135.015625 139.558594 135.632812 140.273438 136.195312 141.035156 C 137.1875 142.476562 137.910156 144 138.367188 145.609375 C 138.640625 146.574219 138.84375 147.644531 138.96875 148.816406 L 140.128906 147.441406 C 140.175781 147.386719 140.21875 147.308594 140.253906 147.207031 C 140.285156 147.128906 140.289062 147.046875 140.277344 146.949219 C 139.882812 143.972656 138.582031 140.984375 136.523438 138.773438 C 135.195312 137.332031 133.660156 136.320312 131.925781 135.746094 C 130.945312 135.421875 129.847656 135.265625 128.628906 135.277344 L 127.15625 135.445312 C 127.160156 135.441406 127.152344 135.445312 127.15625 135.453125 Z M 127.15625 135.453125 " fill-opacity="1" fill-rule="nonzero"/></g></g></g></g><g clip-path="url(#f194836bf7)"><g clip-path="url(#bc10b5931e)"><g clip-path="url(#729a5a2c4f)"><g clip-path="url(#44704a80ff)"><path fill="#000000" d="M 143.84375 178.164062 C 143.960938 180.109375 143.703125 181.976562 143.074219 183.765625 C 142.800781 184.597656 142.441406 185.382812 142.003906 186.117188 C 141.570312 186.886719 141.074219 187.589844 140.5 188.238281 C 139.519531 189.351562 138.460938 190.304688 137.160156 191.015625 C 136.976562 191.117188 136.789062 191.21875 136.609375 191.320312 C 136.605469 191.324219 136.601562 191.328125 136.605469 191.332031 C 136.605469 191.335938 136.613281 191.339844 136.617188 191.339844 C 137.425781 191.140625 138.28125 190.933594 139.007812 190.609375 C 139.625 190.335938 140.214844 190.003906 140.777344 189.613281 C 142.546875 188.34375 143.820312 186.539062 144.5625 184.503906 C 145.554688 181.703125 145.765625 178.84375 145.203125 175.925781 C 144.753906 175.417969 143.992188 175.058594 143.371094 174.742188 C 143.613281 175.835938 143.773438 176.976562 143.84375 178.164062 Z M 143.84375 178.164062 " fill-opacity="1" fill-rule="nonzero"/></g></g></g></g><g clip-path="url(#02024a69c4)"><g clip-path="url(#3cce172ab0)"><g clip-path="url(#e8513d1b60)"><g clip-path="url(#0dbb6b05af)"><path fill="#000000" d="M 134.726562 150.339844 L 134.742188 150.429688 C 134.8125 150.863281 135.222656 151.15625 135.65625 151.089844 L 137.015625 150.867188 C 137.449219 150.796875 137.746094 150.390625 137.679688 149.957031 L 137.664062 149.863281 C 137.59375 149.433594 137.183594 149.136719 136.75 149.207031 L 135.390625 149.425781 C 134.953125 149.496094 134.65625 149.90625 134.726562 150.339844 Z M 134.726562 150.339844 " fill-opacity="1" fill-rule="nonzero"/></g></g></g></g><g clip-path="url(#41e3e604c9)"><g clip-path="url(#a608c39010)"><g clip-path="url(#c324599e3d)"><g clip-path="url(#fe0aafb625)"><path fill="#000000" d="M 138.847656 174.542969 L 138.859375 174.632812 C 138.9375 175.078125 139.355469 175.378906 139.800781 175.300781 L 141.097656 175.085938 C 141.542969 175.011719 141.84375 174.59375 141.769531 174.148438 L 141.753906 174.058594 C 141.679688 173.613281 141.261719 173.3125 140.8125 173.390625 L 139.515625 173.605469 C 139.074219 173.679688 138.773438 174.101562 138.847656 174.542969 Z M 138.847656 174.542969 " fill-opacity="1" fill-rule="nonzero"/></g></g></g></g><g clip-path="url(#99f2f2faeb)"><g clip-path="url(#4554857565)"><g clip-path="url(#8ab0c4331c)"><g clip-path="url(#896fe2476e)"><path fill="#000000" d="M 141.316406 184.324219 C 141.710938 183.445312 141.886719 182.65625 141.996094 181.628906 C 142.035156 181.257812 142.085938 180.882812 142.148438 180.503906 C 142.097656 180.359375 142.09375 180.179688 142.144531 179.972656 C 142.144531 179.96875 142.144531 179.964844 142.140625 179.957031 C 142.140625 179.953125 142.136719 179.953125 142.136719 179.945312 C 142.128906 179.929688 142.121094 179.933594 142.121094 179.949219 C 142.027344 180.566406 141.925781 181.183594 141.820312 181.796875 C 141.574219 183.261719 141.035156 184.613281 140.210938 185.855469 L 139.554688 186.796875 C 140.242188 186.058594 140.828125 185.234375 141.316406 184.324219 Z M 141.316406 184.324219 " fill-opacity="1" fill-rule="nonzero"/></g></g></g></g><g clip-path="url(#eee93e0259)"><g clip-path="url(#fef6e7de69)"><g clip-path="url(#b15d1127be)"><g clip-path="url(#2bc001d521)"><path fill="#000000" d="M 139.96875 181.300781 C 139.960938 181.515625 139.910156 181.714844 139.824219 181.910156 C 139.734375 182.101562 139.613281 182.269531 139.457031 182.414062 C 139.304688 182.558594 139.128906 182.667969 138.929688 182.742188 C 138.730469 182.816406 138.527344 182.847656 138.316406 182.839844 C 138.105469 182.832031 137.90625 182.785156 137.714844 182.699219 C 137.523438 182.609375 137.355469 182.488281 137.210938 182.332031 C 137.070312 182.175781 136.960938 182 136.886719 181.800781 C 136.816406 181.601562 136.78125 181.394531 136.792969 181.183594 C 136.800781 180.972656 136.847656 180.769531 136.9375 180.578125 C 137.023438 180.382812 137.144531 180.214844 137.300781 180.070312 C 137.457031 179.925781 137.632812 179.816406 137.828125 179.742188 C 138.027344 179.667969 138.230469 179.636719 138.441406 179.644531 C 138.652344 179.652344 138.851562 179.699219 139.046875 179.789062 C 139.238281 179.875 139.402344 180 139.546875 180.152344 C 139.691406 180.308594 139.796875 180.488281 139.871094 180.683594 C 139.945312 180.882812 139.976562 181.089844 139.96875 181.300781 Z M 139.96875 181.300781 " fill-opacity="1" fill-rule="nonzero"/></g></g></g></g><g clip-path="url(#f8de597255)"><g clip-path="url(#4b1fada89a)"><g clip-path="url(#5883a333bb)"><g clip-path="url(#02e1721465)"><path fill="#000000" d="M 129.804688 144.425781 C 129.734375 144.546875 129.699219 144.75 129.800781 144.84375 C 130.242188 145.226562 130.679688 145.585938 131.117188 145.914062 C 131.171875 145.957031 131.25 145.972656 131.320312 145.960938 L 133.039062 145.644531 C 133.0625 145.640625 133.082031 145.632812 133.097656 145.613281 C 133.441406 145.300781 133.621094 144.980469 133.65625 144.65625 C 133.6875 144.3125 133.597656 143.898438 133.378906 143.410156 C 133.207031 143.015625 132.722656 142.722656 132.265625 142.792969 C 131.769531 142.867188 131.28125 142.957031 130.804688 143.046875 C 130.757812 143.054688 130.71875 143.078125 130.6875 143.113281 C 130.355469 143.53125 130.058594 143.96875 129.804688 144.425781 Z M 129.804688 144.425781 " fill-opacity="1" fill-rule="nonzero"/></g></g></g></g><g clip-path="url(#b40e3ba6dd)"><g clip-path="url(#a3565c87d3)"><g clip-path="url(#8b04356a7d)"><g clip-path="url(#10729dfe3b)"><path fill="#000000" d="M 130.230469 155.605469 C 130.1875 155.820312 130.207031 156.167969 130.292969 156.648438 C 131.066406 161.121094 131.824219 165.585938 132.578125 170.0625 C 132.65625 170.523438 132.753906 170.863281 132.878906 171.078125 C 133.320312 171.847656 134.125 172.117188 135.289062 171.878906 C 137.273438 171.550781 139.300781 171.207031 141.359375 170.855469 C 142.191406 170.710938 142.554688 170.109375 142.414062 169.300781 C 141.542969 164.222656 140.683594 159.144531 139.84375 154.0625 C 139.753906 153.503906 139.488281 153.167969 139.058594 153.0625 C 138.863281 153.011719 138.488281 153.035156 137.941406 153.132812 C 136.070312 153.46875 134.207031 153.789062 132.34375 154.097656 C 131.421875 154.152344 130.421875 154.652344 130.230469 155.605469 Z M 130.230469 155.605469 " fill-opacity="1" fill-rule="nonzero"/></g></g></g></g><g clip-path="url(#1ad799e95b)"><g clip-path="url(#9980d8e335)"><g clip-path="url(#d734c834ad)"><g clip-path="url(#ae6cbaa2ec)"><path fill="#000000" d="M 133.769531 176.398438 C 133.355469 176.511719 133.054688 176.753906 132.867188 177.109375 C 132.429688 177.957031 132.605469 178.671875 133.390625 179.261719 C 133.683594 179.480469 133.992188 179.570312 134.3125 179.53125 C 136.792969 179.289062 136.035156 175.761719 133.769531 176.398438 Z M 133.769531 176.398438 " fill-opacity="1" fill-rule="nonzero"/></g></g></g></g><g clip-path="url(#68e168ccae)"><g clip-path="url(#d401630ffb)"><g clip-path="url(#9a33814343)"><g clip-path="url(#d4a44b11d2)"><path fill="#000000" d="M 136.714844 184.511719 C 136.28125 184.042969 135.730469 183.894531 135.054688 184.070312 C 134.300781 184.414062 133.933594 184.921875 133.941406 185.59375 C 133.960938 186.695312 134.835938 187.425781 135.953125 187.183594 C 137.121094 186.824219 137.558594 185.433594 136.714844 184.511719 Z M 136.714844 184.511719 " fill-opacity="1" fill-rule="nonzero"/></g></g></g></g><g clip-path="url(#90f125d68b)"><g clip-path="url(#38e0537e63)"><g clip-path="url(#e74c6a120a)"><g clip-path="url(#ddbc96a9cd)"><path fill="#000000" d="M 129.679688 142.304688 C 129.605469 141.789062 129.519531 141.273438 129.425781 140.765625 C 129.390625 140.582031 129.328125 140.433594 129.234375 140.316406 C 128.808594 139.789062 128.257812 139.625 127.578125 139.824219 C 126.953125 140.027344 126.355469 140.5625 126.472656 141.25 C 126.558594 141.761719 126.648438 142.269531 126.734375 142.777344 C 126.742188 142.808594 126.757812 142.832031 126.78125 142.851562 C 127.191406 143.171875 127.640625 143.453125 128.128906 143.707031 C 128.257812 143.828125 128.40625 143.859375 128.578125 143.8125 C 128.683594 143.785156 128.785156 143.703125 128.875 143.570312 C 129.136719 143.171875 129.398438 142.78125 129.660156 142.386719 C 129.679688 142.367188 129.683594 142.335938 129.679688 142.304688 Z M 129.679688 142.304688 " fill-opacity="1" fill-rule="nonzero"/></g></g></g></g><g clip-path="url(#0bd1b67a56)"><g clip-path="url(#709bcb6f23)"><g clip-path="url(#599dde5dc9)"><g clip-path="url(#f3e09bc120)"><path fill="#000000" d="M 121.179688 197.023438 C 123.992188 195.722656 126.785156 194.367188 129.605469 193.070312 C 131.46875 192.214844 133.324219 191.335938 135.171875 190.429688 C 135.171875 190.429688 135.175781 190.425781 135.175781 190.421875 C 135.175781 190.417969 135.171875 190.414062 135.164062 190.414062 C 133.988281 190.640625 132.933594 190.414062 131.8125 190.09375 C 131.761719 190.078125 131.710938 190.082031 131.664062 190.105469 C 129.433594 191.085938 127.226562 192.109375 125.039062 193.175781 C 123.488281 193.933594 121.925781 194.621094 120.363281 195.320312 C 119.050781 195.902344 117.621094 196.066406 116.078125 195.800781 C 115.769531 195.75 115.53125 195.679688 115.355469 195.59375 C 115.34375 195.589844 115.339844 195.578125 115.335938 195.570312 C 115.332031 195.550781 115.34375 195.53125 115.363281 195.527344 C 116.410156 195.34375 117.328125 195.003906 118.109375 194.503906 C 119.589844 193.554688 120.992188 192.503906 122.300781 191.34375 C 122.304688 191.339844 122.304688 191.335938 122.304688 191.335938 C 122.304688 191.332031 122.296875 191.328125 122.292969 191.328125 C 120.992188 192.007812 119.644531 192.585938 118.25 193.066406 C 117.566406 193.300781 116.726562 193.488281 115.726562 193.628906 C 114.753906 193.769531 113.300781 193.785156 112.59375 193.089844 C 112.289062 192.683594 112.175781 192.199219 112.253906 191.632812 C 112.371094 190.78125 112.5625 190.074219 112.925781 189.261719 C 114.136719 186.59375 116.023438 184.164062 118.132812 182.148438 C 118.171875 182.105469 118.238281 181.992188 118.273438 181.9375 C 118.3125 181.882812 118.304688 181.875 118.25 181.914062 C 117.539062 182.421875 116.742188 182.808594 115.988281 183.257812 C 112.433594 185.359375 109.179688 188.644531 109.980469 193.128906 C 110.019531 193.335938 110.117188 193.632812 110.285156 194.027344 C 111.304688 196.539062 114.230469 197.882812 116.800781 197.988281 C 118.285156 198.050781 119.828125 197.648438 121.179688 197.023438 Z M 121.179688 197.023438 " fill-opacity="1" fill-rule="nonzero"/></g></g></g></g><g clip-path="url(#86d98a977c)"><g clip-path="url(#d13fcf516d)"><g clip-path="url(#34e604bfc1)"><g clip-path="url(#9909919a0b)"><path fill="#000000" d="M 127.925781 149.320312 C 127.886719 149.367188 127.917969 149.445312 128.027344 149.558594 C 128.515625 150.0625 129.140625 150.195312 129.902344 149.957031 C 130.273438 149.789062 130.546875 149.503906 130.714844 149.109375 C 130.761719 148.988281 130.777344 148.855469 130.753906 148.707031 C 130.671875 148.179688 130.574219 147.660156 130.457031 147.140625 C 130.421875 146.984375 130.34375 146.859375 130.214844 146.765625 C 129.816406 146.46875 129.414062 146.164062 129.019531 145.859375 C 128.910156 145.777344 128.761719 145.808594 128.660156 145.90625 C 128.527344 146.03125 128.429688 146.152344 128.367188 146.273438 L 127.609375 147.332031 C 127.628906 147.96875 127.734375 148.632812 127.925781 149.320312 Z M 127.925781 149.320312 " fill-opacity="1" fill-rule="nonzero"/></g></g></g></g><g clip-path="url(#bada9f17de)"><g clip-path="url(#0c0a583d81)"><g clip-path="url(#93ebc5d5e5)"><g clip-path="url(#a52880e53c)"><path fill="#000000" d="M 121.058594 150.78125 C 119.769531 151.464844 118.941406 152.546875 118.570312 154.023438 C 118.160156 156.253906 119.195312 158.472656 121.308594 159.40625 C 121.652344 159.59375 122.023438 159.714844 122.425781 159.773438 C 123.984375 160.011719 125.324219 159.671875 126.453125 158.761719 C 128.332031 157.242188 128.726562 154.65625 127.535156 152.585938 C 126.238281 150.339844 123.347656 149.5625 121.058594 150.78125 Z M 125.800781 152.476562 C 126.996094 153.640625 127.347656 155.480469 126.351562 156.894531 C 125.921875 157.496094 125.363281 157.921875 124.679688 158.167969 C 124.050781 158.335938 123.628906 158.417969 123.410156 158.40625 C 122.101562 158.328125 121.121094 157.78125 120.457031 156.765625 C 119.582031 155.410156 119.96875 153.691406 121.039062 152.59375 C 122.417969 151.421875 124.417969 151.222656 125.800781 152.476562 Z M 125.800781 152.476562 " fill-opacity="1" fill-rule="nonzero"/></g></g></g></g><g clip-path="url(#fe261f8ed2)"><g clip-path="url(#58995f69c1)"><g clip-path="url(#10509805d5)"><g clip-path="url(#c5be5410db)"><path fill="#000000" d="M 124.546875 169.628906 C 123.097656 170.277344 122.171875 171.429688 121.773438 173.070312 C 121.304688 175.253906 122.5 177.4375 124.484375 178.390625 C 125.816406 178.921875 127.121094 178.925781 128.402344 178.414062 C 129.117188 178.128906 129.707031 177.648438 130.226562 177.085938 C 131.460938 175.746094 131.695312 173.621094 131.003906 171.976562 C 129.945312 169.449219 127 168.53125 124.546875 169.628906 Z M 130.113281 173.789062 C 130.152344 175.453125 129.046875 176.84375 127.421875 177.300781 C 126.03125 177.539062 124.535156 177.046875 123.738281 175.859375 C 122.929688 174.65625 123.066406 173.324219 123.761719 172.117188 C 125.230469 170.195312 128.039062 169.96875 129.511719 172.03125 C 129.902344 172.574219 130.101562 173.160156 130.113281 173.789062 Z M 130.113281 173.789062 " fill-opacity="1" fill-rule="nonzero"/></g></g></g></g><g clip-path="url(#db49098ed9)"><g clip-path="url(#4f992ef24e)"><g clip-path="url(#c6846c3d27)"><g clip-path="url(#fda4aab2ca)"><path fill="#000000" d="M 123.742188 145.691406 C 123.898438 146.300781 124.015625 146.738281 124.566406 146.996094 C 124.675781 147.046875 124.800781 147.058594 124.9375 147.035156 C 125.40625 146.964844 125.871094 146.882812 126.332031 146.800781 C 126.445312 146.78125 126.507812 146.742188 126.515625 146.6875 C 126.921875 146.167969 127.195312 145.75 127.339844 145.433594 C 127.46875 145.160156 127.421875 144.941406 127.199219 144.777344 C 126.707031 144.414062 126.328125 144.128906 126.0625 143.914062 C 126.039062 143.894531 126.011719 143.886719 125.984375 143.890625 L 124.453125 144.125 C 123.789062 144.414062 123.550781 144.9375 123.742188 145.691406 Z M 123.742188 145.691406 " fill-opacity="1" fill-rule="nonzero"/></g></g></g></g><g clip-path="url(#61867520c0)"><g clip-path="url(#538332d2de)"><g clip-path="url(#ada674894f)"><g clip-path="url(#72adebc997)"><path fill="#000000" d="M 127.90625 160.34375 C 127.542969 160.308594 127.214844 160.566406 127.175781 160.921875 C 127.140625 161.273438 127.414062 161.589844 127.777344 161.625 C 128.144531 161.660156 128.472656 161.402344 128.507812 161.050781 C 128.542969 160.695312 128.273438 160.382812 127.90625 160.34375 Z M 127.90625 160.34375 " fill-opacity="1" fill-rule="nonzero"/></g></g></g></g><g clip-path="url(#6bcd74ac67)"><g clip-path="url(#a123147aa4)"><g clip-path="url(#325204d08a)"><g clip-path="url(#ba45643059)"><path fill="#000000" d="M 128.542969 164.445312 C 128.371094 164.503906 128.203125 164.492188 128.042969 164.414062 C 127.878906 164.335938 127.769531 164.210938 127.710938 164.039062 C 127.652344 163.871094 127.664062 163.703125 127.742188 163.542969 C 127.824219 163.382812 127.949219 163.269531 128.121094 163.214844 C 128.289062 163.15625 128.457031 163.164062 128.621094 163.246094 C 128.78125 163.324219 128.890625 163.449219 128.949219 163.617188 C 129.007812 163.789062 128.996094 163.953125 128.917969 164.117188 C 128.835938 164.277344 128.710938 164.386719 128.542969 164.445312 Z M 128.542969 164.445312 " fill-opacity="1" fill-rule="nonzero"/></g></g></g></g><g clip-path="url(#4c8f994ed3)"><g clip-path="url(#26a28eadbb)"><g clip-path="url(#7094631a64)"><g clip-path="url(#8ca85fadef)"><path fill="#000000" d="M 129.347656 166.257812 C 129.144531 165.984375 128.734375 165.9375 128.4375 166.160156 C 128.136719 166.378906 128.058594 166.78125 128.265625 167.054688 C 128.472656 167.332031 128.878906 167.375 129.175781 167.15625 C 129.476562 166.933594 129.550781 166.53125 129.347656 166.257812 Z M 129.347656 166.257812 " fill-opacity="1" fill-rule="nonzero"/></g></g></g></g><g clip-path="url(#1d3482ef65)"><g clip-path="url(#f132c5eb10)"><g clip-path="url(#e0e25f1abc)"><g clip-path="url(#c1965a969f)"><path fill="#000000" d="M 131.761719 184.011719 C 132.28125 183.945312 132.667969 183.664062 132.929688 183.164062 C 133.460938 182.15625 132.929688 181.125 131.839844 180.847656 C 131.140625 180.773438 130.597656 180.96875 130.214844 181.433594 C 129.210938 182.648438 130.277344 184.207031 131.761719 184.011719 Z M 131.375 180.855469 C 131.355469 180.851562 131.339844 180.851562 131.320312 180.851562 C 131.339844 180.851562 131.355469 180.851562 131.375 180.855469 Z M 131.320312 180.851562 C 131.304688 180.851562 131.289062 180.859375 131.273438 180.867188 C 131.289062 180.859375 131.304688 180.851562 131.320312 180.851562 Z M 131.25 180.882812 C 131.257812 180.878906 131.265625 180.875 131.273438 180.871094 C 131.265625 180.875 131.257812 180.878906 131.25 180.882812 Z M 131.246094 180.890625 C 131.242188 180.894531 131.234375 180.898438 131.234375 180.902344 C 131.234375 180.898438 131.238281 180.894531 131.246094 180.890625 Z M 131.210938 180.949219 Z M 131.226562 180.914062 C 131.222656 180.917969 131.21875 180.921875 131.21875 180.921875 C 131.21875 180.921875 131.222656 180.917969 131.226562 180.914062 Z M 131.203125 181.003906 Z M 131.203125 181.003906 " fill-opacity="1" fill-rule="nonzero"/></g></g></g></g><g clip-path="url(#968ea1e8b9)"><g clip-path="url(#a247cf1f75)"><g clip-path="url(#8fcb5a0dc4)"><g clip-path="url(#f2a2d86857)"><path fill="#000000" d="M 127.5625 165.78125 C 127.753906 165.484375 127.675781 165.09375 127.390625 164.910156 C 127.105469 164.726562 126.714844 164.824219 126.523438 165.121094 C 126.332031 165.421875 126.410156 165.8125 126.695312 165.992188 C 126.984375 166.175781 127.371094 166.078125 127.5625 165.78125 Z M 127.5625 165.78125 " fill-opacity="1" fill-rule="nonzero"/></g></g></g></g><g clip-path="url(#8cabba18ef)"><g clip-path="url(#d4ca92384b)"><g clip-path="url(#b75331bc71)"><g clip-path="url(#1bd7953065)"><path fill="#000000" d="M 126.929688 163.179688 C 127.207031 162.976562 127.28125 162.59375 127.085938 162.328125 C 126.890625 162.058594 126.503906 162.003906 126.222656 162.207031 C 125.945312 162.410156 125.871094 162.792969 126.066406 163.0625 C 126.261719 163.328125 126.648438 163.378906 126.929688 163.179688 Z M 126.929688 163.179688 " fill-opacity="1" fill-rule="nonzero"/></g></g></g></g><g clip-path="url(#c507b819eb)"><g clip-path="url(#6399d291e1)"><g clip-path="url(#00a0d6f431)"><g clip-path="url(#b2c133eea3)"><path fill="#000000" d="M 126.015625 171.976562 C 124.742188 172.585938 124.128906 174.144531 125.121094 175.300781 C 125.609375 175.867188 126.265625 176.09375 127.089844 175.972656 C 127.5625 175.9375 127.988281 175.691406 128.359375 175.230469 C 129.75 173.507812 128.023438 171.167969 126.015625 171.976562 Z M 126.015625 171.976562 " fill-opacity="1" fill-rule="nonzero"/></g></g></g></g><g clip-path="url(#e912553fda)"><g clip-path="url(#ad07e706d6)"><g clip-path="url(#6cfe1903e7)"><g clip-path="url(#df8fd6e907)"><path fill="#000000" d="M 121.75 153.976562 C 121 155.21875 121.632812 156.730469 123.078125 157 C 123.445312 157.066406 123.8125 157.058594 124.183594 156.972656 C 126.042969 156.363281 126.203125 153.921875 124.464844 153.0625 C 123.925781 152.792969 123.394531 152.777344 122.886719 153.019531 C 122.421875 153.097656 121.976562 153.59375 121.75 153.976562 Z M 121.75 153.976562 " fill-opacity="1" fill-rule="nonzero"/></g></g></g></g><g clip-path="url(#73432bf845)"><g clip-path="url(#a6c6109d3d)"><g clip-path="url(#5cfc039407)"><g clip-path="url(#0fa116944a)"><path fill="#000000" d="M 121.882812 164.574219 C 121.8125 165.320312 122.101562 165.835938 122.757812 166.117188 C 123.050781 166.265625 123.394531 166.273438 123.789062 166.144531 C 124.175781 166.035156 124.460938 165.785156 124.636719 165.394531 C 125.050781 164.484375 124.4375 163.492188 123.402344 163.417969 C 122.996094 163.40625 122.625 163.542969 122.285156 163.839844 C 122.054688 164.039062 121.921875 164.285156 121.882812 164.574219 Z M 121.882812 164.574219 " fill-opacity="1" fill-rule="nonzero"/></g></g></g></g><g clip-path="url(#ed5b808500)"><g clip-path="url(#f86c40731a)"><g clip-path="url(#5952409e64)"><g clip-path="url(#6046f7a00a)"><path fill="#000000" d="M 108.066406 190.972656 C 108.070312 190.925781 108.074219 190.878906 108.074219 190.832031 C 108.132812 189.328125 108.566406 188.007812 109.375 186.714844 C 110.28125 185.261719 111.441406 184.035156 112.859375 183.027344 C 114.179688 182.09375 115.320312 181.457031 116.585938 180.722656 C 117.269531 180.328125 117.765625 179.992188 118.082031 179.707031 C 119.371094 178.550781 119.960938 177.097656 119.847656 175.339844 C 119.832031 175.109375 119.746094 174.511719 119.582031 173.554688 C 118.683594 168.144531 117.765625 162.734375 116.832031 157.328125 C 116.6875 156.515625 116.554688 155.929688 116.425781 155.570312 C 115.871094 154.027344 114.828125 152.945312 113.292969 152.339844 C 112.542969 152.042969 111.597656 151.957031 110.75 151.828125 C 108.066406 151.414062 105.414062 150.609375 103.246094 148.9375 C 101.921875 147.914062 100.925781 146.640625 100.269531 145.113281 C 100.269531 145.109375 100.265625 145.105469 100.261719 145.105469 C 100.257812 145.105469 100.253906 145.109375 100.257812 145.113281 C 100.355469 145.855469 100.464844 146.644531 100.714844 147.320312 C 102.132812 151.160156 106.296875 152.714844 110.011719 153.234375 C 110.578125 153.316406 111.152344 153.398438 111.726562 153.492188 C 113.222656 153.730469 114.253906 154.496094 114.824219 155.789062 C 114.964844 156.113281 115.09375 156.605469 115.210938 157.261719 C 116.191406 162.886719 117.144531 168.515625 118.074219 174.148438 C 118.210938 174.984375 118.269531 175.582031 118.25 175.941406 C 118.191406 177.046875 117.753906 177.964844 116.929688 178.695312 C 116.671875 178.925781 116.164062 179.25 115.410156 179.664062 C 112.714844 181.148438 110.101562 182.625 108.609375 185.464844 C 107.695312 187.210938 107.511719 189.039062 108.050781 190.960938 C 108.050781 190.964844 108.054688 190.964844 108.054688 190.96875 C 108.066406 190.980469 108.070312 190.980469 108.066406 190.972656 Z M 108.066406 190.972656 " fill-opacity="1" fill-rule="nonzero"/></g></g></g></g><g clip-path="url(#bceefd15df)"><g clip-path="url(#3d4c26cfb9)"><g clip-path="url(#ca3a91a6c9)"><g clip-path="url(#a7536f1533)"><path fill="#000000" d="M 107.148438 148.910156 C 107.980469 149.246094 108.757812 149.480469 109.480469 149.621094 C 110.617188 149.835938 111.753906 150.054688 112.890625 150.277344 C 112.914062 150.28125 112.914062 150.277344 112.898438 150.261719 C 112.734375 150.125 112.492188 150.066406 112.355469 149.996094 C 111.53125 149.570312 110.683594 149.148438 109.929688 148.65625 C 108.71875 147.871094 107.570312 147.015625 106.472656 146.082031 C 105.945312 145.632812 105.394531 145.058594 104.820312 144.355469 C 104.214844 143.617188 103.863281 142.804688 103.765625 141.917969 C 103.761719 141.867188 103.765625 141.804688 103.78125 141.738281 C 104.089844 141.246094 104.503906 140.890625 105.027344 140.667969 C 105.878906 140.304688 106.828125 140.070312 107.871094 139.96875 C 109.207031 139.839844 110.542969 139.820312 111.878906 139.910156 C 112.4375 139.949219 112.988281 140.023438 113.535156 140.136719 C 113.539062 140.136719 113.539062 140.132812 113.539062 140.128906 L 113.539062 140.105469 C 113.539062 140.105469 113.539062 140.101562 113.539062 140.101562 C 112.628906 139.765625 111.71875 139.363281 110.808594 139.109375 C 109.105469 138.632812 107.523438 138.289062 105.777344 138.464844 C 105.628906 138.480469 105.617188 138.449219 105.738281 138.359375 C 106.511719 137.832031 107.335938 137.46875 108.214844 137.265625 C 109.441406 136.984375 110.976562 137.085938 112.273438 137.21875 C 115.820312 137.570312 119.375 137.914062 122.925781 138.242188 C 122.957031 138.246094 122.984375 138.238281 123.007812 138.21875 C 123.796875 137.542969 125.027344 136.828125 126.085938 136.777344 C 126.097656 136.777344 126.109375 136.773438 126.117188 136.765625 C 126.136719 136.742188 126.132812 136.734375 126.105469 136.730469 C 124.738281 136.570312 122.882812 136.386719 120.542969 136.179688 C 118.019531 135.960938 113.976562 135.476562 110.257812 135.21875 C 109.488281 135.164062 108.886719 135.160156 108.445312 135.207031 C 106.738281 135.378906 105.207031 136.007812 103.863281 137.09375 C 102.46875 138.21875 101.636719 139.671875 101.363281 141.457031 C 101.316406 143.292969 101.898438 144.859375 103.109375 146.164062 C 104.1875 147.308594 105.644531 148.304688 107.148438 148.910156 Z M 104.386719 139.941406 C 104.386719 139.9375 104.390625 139.929688 104.390625 139.925781 C 104.390625 139.929688 104.390625 139.933594 104.386719 139.941406 Z M 104.378906 139.964844 C 104.382812 139.960938 104.386719 139.953125 104.386719 139.945312 C 104.386719 139.953125 104.382812 139.960938 104.378906 139.964844 Z M 104.378906 139.902344 C 104.375 139.898438 104.375 139.898438 104.375 139.898438 C 104.375 139.898438 104.375 139.898438 104.378906 139.902344 Z M 104.386719 139.917969 C 104.386719 139.914062 104.386719 139.910156 104.382812 139.910156 C 104.382812 139.914062 104.386719 139.914062 104.386719 139.917969 Z M 104.359375 139.890625 C 104.355469 139.890625 104.355469 139.886719 104.351562 139.890625 C 104.355469 139.890625 104.355469 139.890625 104.359375 139.890625 Z M 104.359375 139.890625 " fill-opacity="1" fill-rule="nonzero"/></g></g></g></g><g clip-path="url(#2cc79d083b)"><g clip-path="url(#5dde68c198)"><g clip-path="url(#7330eda692)"><g clip-path="url(#76eb9604d3)"><path fill="#000000" d="M 181.625 129.910156 L 165.066406 124.75 L 171.027344 141.117188 L 160.980469 155.371094 L 178.316406 154.679688 C 182.472656 159.171875 188.273438 174.308594 188.273438 174.308594 C 188.230469 174.152344 184.339844 156.933594 180.472656 150.15625 L 169.753906 150.582031 L 175.964844 141.765625 L 172.28125 131.644531 L 182.519531 134.839844 L 190.964844 128.15625 L 191.082031 138.945312 L 199.984375 144.9375 L 189.816406 148.414062 C 193.425781 176.046875 191.679688 201.75 191.679688 201.75 C 191.679688 201.75 195.101562 184.242188 193.421875 151.859375 L 209.863281 146.238281 L 195.46875 136.550781 L 195.277344 119.109375 Z M 181.625 129.910156 " fill-opacity="1" fill-rule="nonzero"/></g></g></g></g></svg>