<svg xmlns="http://www.w3.org/2000/svg" xmlns:xlink="http://www.w3.org/1999/xlink" width="500" zoomAndPan="magnify" viewBox="0 0 375 374.999991" height="500" preserveAspectRatio="xMidYMid meet" version="1.0"><defs><g/><clipPath id="23772695f9"><path d="M 97.117188 108.390625 L 153.253906 108.390625 L 153.253906 206.648438 L 97.117188 206.648438 Z M 97.117188 108.390625 " clip-rule="nonzero"/></clipPath><clipPath id="33f0d48e32"><path d="M 159.574219 108.390625 L 215.710938 108.390625 L 215.710938 206.648438 L 159.574219 206.648438 Z M 159.574219 108.390625 " clip-rule="nonzero"/></clipPath><clipPath id="8731a1b20d"><path d="M 221.746094 108.390625 L 277.882812 108.390625 L 277.882812 206.648438 L 221.746094 206.648438 Z M 221.746094 108.390625 " clip-rule="nonzero"/></clipPath><clipPath id="d298f4905d"><path d="M 205 157 L 220 157 L 220 171 L 205 171 Z M 205 157 " clip-rule="nonzero"/></clipPath><clipPath id="d408293f97"><path d="M 198.515625 162.546875 L 243.683594 105.515625 L 300.714844 150.683594 L 255.546875 207.714844 Z M 198.515625 162.546875 " clip-rule="nonzero"/></clipPath><clipPath id="fc2f2b4c04"><path d="M 198.515625 162.546875 L 243.683594 105.515625 L 300.714844 150.683594 L 255.546875 207.714844 Z M 198.515625 162.546875 " clip-rule="nonzero"/></clipPath><clipPath id="60a5b6f922"><path d="M 222 123 L 276 123 L 276 203 L 222 203 Z M 222 123 " clip-rule="nonzero"/></clipPath><clipPath id="6f32576976"><path d="M 198.515625 162.546875 L 243.683594 105.515625 L 300.714844 150.683594 L 255.546875 207.714844 Z M 198.515625 162.546875 " clip-rule="nonzero"/></clipPath><clipPath id="0631c3113b"><path d="M 198.515625 162.546875 L 243.683594 105.515625 L 300.714844 150.683594 L 255.546875 207.714844 Z M 198.515625 162.546875 " clip-rule="nonzero"/></clipPath><clipPath id="bbbb3177a3"><path d="M 147 158 L 155 158 L 155 162 L 147 162 Z M 147 158 " clip-rule="nonzero"/></clipPath><clipPath id="2cb8820cf9"><path d="M 148.9375 128.199219 L 159.597656 191.050781 L 109.3125 199.578125 L 98.65625 136.726562 Z M 148.9375 128.199219 " clip-rule="nonzero"/></clipPath><clipPath id="7d4f6f3d2e"><path d="M 148.9375 128.199219 L 159.597656 191.050781 L 109.3125 199.578125 L 98.65625 136.726562 Z M 148.9375 128.199219 " clip-rule="nonzero"/></clipPath><clipPath id="2a96c64dc6"><path d="M 142 159 L 147 159 L 147 164 L 142 164 Z M 142 159 " clip-rule="nonzero"/></clipPath><clipPath id="99cbb3154b"><path d="M 148.9375 128.199219 L 159.597656 191.050781 L 109.3125 199.578125 L 98.65625 136.726562 Z M 148.9375 128.199219 " clip-rule="nonzero"/></clipPath><clipPath id="2db9408f1b"><path d="M 148.9375 128.199219 L 159.597656 191.050781 L 109.3125 199.578125 L 98.65625 136.726562 Z M 148.9375 128.199219 " clip-rule="nonzero"/></clipPath><clipPath id="2836ba0154"><path d="M 127 135 L 141 135 L 141 149 L 127 149 Z M 127 135 " clip-rule="nonzero"/></clipPath><clipPath id="c963206979"><path d="M 148.9375 128.199219 L 159.597656 191.050781 L 109.3125 199.578125 L 98.65625 136.726562 Z M 148.9375 128.199219 " clip-rule="nonzero"/></clipPath><clipPath id="61cb8c302b"><path d="M 148.9375 128.199219 L 159.597656 191.050781 L 109.3125 199.578125 L 98.65625 136.726562 Z M 148.9375 128.199219 " clip-rule="nonzero"/></clipPath><clipPath id="d84c89a880"><path d="M 136 174 L 146 174 L 146 192 L 136 192 Z M 136 174 " clip-rule="nonzero"/></clipPath><clipPath id="86c08d1332"><path d="M 148.9375 128.199219 L 159.597656 191.050781 L 109.3125 199.578125 L 98.65625 136.726562 Z M 148.9375 128.199219 " clip-rule="nonzero"/></clipPath><clipPath id="a2e94b1d8b"><path d="M 148.9375 128.199219 L 159.597656 191.050781 L 109.3125 199.578125 L 98.65625 136.726562 Z M 148.9375 128.199219 " clip-rule="nonzero"/></clipPath><clipPath id="e5c1c08fd4"><path d="M 134 149 L 138 149 L 138 152 L 134 152 Z M 134 149 " clip-rule="nonzero"/></clipPath><clipPath id="2e8b496c25"><path d="M 148.9375 128.199219 L 159.597656 191.050781 L 109.3125 199.578125 L 98.65625 136.726562 Z M 148.9375 128.199219 " clip-rule="nonzero"/></clipPath><clipPath id="04fc18a7dc"><path d="M 148.9375 128.199219 L 159.597656 191.050781 L 109.3125 199.578125 L 98.65625 136.726562 Z M 148.9375 128.199219 " clip-rule="nonzero"/></clipPath><clipPath id="8eff46b4eb"><path d="M 138 173 L 142 173 L 142 176 L 138 176 Z M 138 173 " clip-rule="nonzero"/></clipPath><clipPath id="bfb4bef859"><path d="M 148.9375 128.199219 L 159.597656 191.050781 L 109.3125 199.578125 L 98.65625 136.726562 Z M 148.9375 128.199219 " clip-rule="nonzero"/></clipPath><clipPath id="77c5da38d0"><path d="M 148.9375 128.199219 L 159.597656 191.050781 L 109.3125 199.578125 L 98.65625 136.726562 Z M 148.9375 128.199219 " clip-rule="nonzero"/></clipPath><clipPath id="2f6baadbef"><path d="M 139 179 L 143 179 L 143 187 L 139 187 Z M 139 179 " clip-rule="nonzero"/></clipPath><clipPath id="9dde615052"><path d="M 148.9375 128.199219 L 159.597656 191.050781 L 109.3125 199.578125 L 98.65625 136.726562 Z M 148.9375 128.199219 " clip-rule="nonzero"/></clipPath><clipPath id="aa2b106bf4"><path d="M 148.9375 128.199219 L 159.597656 191.050781 L 109.3125 199.578125 L 98.65625 136.726562 Z M 148.9375 128.199219 " clip-rule="nonzero"/></clipPath><clipPath id="c5bc09cbf0"><path d="M 136 179 L 141 179 L 141 183 L 136 183 Z M 136 179 " clip-rule="nonzero"/></clipPath><clipPath id="286b8e46e1"><path d="M 148.9375 128.199219 L 159.597656 191.050781 L 109.3125 199.578125 L 98.65625 136.726562 Z M 148.9375 128.199219 " clip-rule="nonzero"/></clipPath><clipPath id="680e95650f"><path d="M 148.9375 128.199219 L 159.597656 191.050781 L 109.3125 199.578125 L 98.65625 136.726562 Z M 148.9375 128.199219 " clip-rule="nonzero"/></clipPath><clipPath id="f3c6e818b4"><path d="M 129 142 L 134 142 L 134 146 L 129 146 Z M 129 142 " clip-rule="nonzero"/></clipPath><clipPath id="ccbad7a712"><path d="M 148.9375 128.199219 L 159.597656 191.050781 L 109.3125 199.578125 L 98.65625 136.726562 Z M 148.9375 128.199219 " clip-rule="nonzero"/></clipPath><clipPath id="34915f2825"><path d="M 148.9375 128.199219 L 159.597656 191.050781 L 109.3125 199.578125 L 98.65625 136.726562 Z M 148.9375 128.199219 " clip-rule="nonzero"/></clipPath><clipPath id="19a892d49f"><path d="M 130 152 L 143 152 L 143 172 L 130 172 Z M 130 152 " clip-rule="nonzero"/></clipPath><clipPath id="3945b3118e"><path d="M 148.9375 128.199219 L 159.597656 191.050781 L 109.3125 199.578125 L 98.65625 136.726562 Z M 148.9375 128.199219 " clip-rule="nonzero"/></clipPath><clipPath id="9f8261af6f"><path d="M 148.9375 128.199219 L 159.597656 191.050781 L 109.3125 199.578125 L 98.65625 136.726562 Z M 148.9375 128.199219 " clip-rule="nonzero"/></clipPath><clipPath id="9d04b83e5e"><path d="M 132 176 L 136 176 L 136 180 L 132 180 Z M 132 176 " clip-rule="nonzero"/></clipPath><clipPath id="5ffdd6b051"><path d="M 148.9375 128.199219 L 159.597656 191.050781 L 109.3125 199.578125 L 98.65625 136.726562 Z M 148.9375 128.199219 " clip-rule="nonzero"/></clipPath><clipPath id="9509651005"><path d="M 148.9375 128.199219 L 159.597656 191.050781 L 109.3125 199.578125 L 98.65625 136.726562 Z M 148.9375 128.199219 " clip-rule="nonzero"/></clipPath><clipPath id="cc090ec1e4"><path d="M 134 183 L 138 183 L 138 188 L 134 188 Z M 134 183 " clip-rule="nonzero"/></clipPath><clipPath id="0bad7e8117"><path d="M 148.9375 128.199219 L 159.597656 191.050781 L 109.3125 199.578125 L 98.65625 136.726562 Z M 148.9375 128.199219 " clip-rule="nonzero"/></clipPath><clipPath id="9fbec43590"><path d="M 148.9375 128.199219 L 159.597656 191.050781 L 109.3125 199.578125 L 98.65625 136.726562 Z M 148.9375 128.199219 " clip-rule="nonzero"/></clipPath><clipPath id="cb8a698e70"><path d="M 126 139 L 130 139 L 130 144 L 126 144 Z M 126 139 " clip-rule="nonzero"/></clipPath><clipPath id="25bc191bfd"><path d="M 148.9375 128.199219 L 159.597656 191.050781 L 109.3125 199.578125 L 98.65625 136.726562 Z M 148.9375 128.199219 " clip-rule="nonzero"/></clipPath><clipPath id="afdc87025e"><path d="M 148.9375 128.199219 L 159.597656 191.050781 L 109.3125 199.578125 L 98.65625 136.726562 Z M 148.9375 128.199219 " clip-rule="nonzero"/></clipPath><clipPath id="b8da7edeaf"><path d="M 110 181 L 136 181 L 136 198 L 110 198 Z M 110 181 " clip-rule="nonzero"/></clipPath><clipPath id="83e33ea345"><path d="M 148.9375 128.199219 L 159.597656 191.050781 L 109.3125 199.578125 L 98.65625 136.726562 Z M 148.9375 128.199219 " clip-rule="nonzero"/></clipPath><clipPath id="8b87263f8e"><path d="M 148.9375 128.199219 L 159.597656 191.050781 L 109.3125 199.578125 L 98.65625 136.726562 Z M 148.9375 128.199219 " clip-rule="nonzero"/></clipPath><clipPath id="9e5e00f76a"><path d="M 127 145 L 131 145 L 131 151 L 127 151 Z M 127 145 " clip-rule="nonzero"/></clipPath><clipPath id="9e87c95605"><path d="M 148.9375 128.199219 L 159.597656 191.050781 L 109.3125 199.578125 L 98.65625 136.726562 Z M 148.9375 128.199219 " clip-rule="nonzero"/></clipPath><clipPath id="5aca60237e"><path d="M 148.9375 128.199219 L 159.597656 191.050781 L 109.3125 199.578125 L 98.65625 136.726562 Z M 148.9375 128.199219 " clip-rule="nonzero"/></clipPath><clipPath id="4e8731b310"><path d="M 118 150 L 129 150 L 129 160 L 118 160 Z M 118 150 " clip-rule="nonzero"/></clipPath><clipPath id="aaf3c1a3c5"><path d="M 148.9375 128.199219 L 159.597656 191.050781 L 109.3125 199.578125 L 98.65625 136.726562 Z M 148.9375 128.199219 " clip-rule="nonzero"/></clipPath><clipPath id="953ef83342"><path d="M 148.9375 128.199219 L 159.597656 191.050781 L 109.3125 199.578125 L 98.65625 136.726562 Z M 148.9375 128.199219 " clip-rule="nonzero"/></clipPath><clipPath id="8082f6c69e"><path d="M 121 169 L 132 169 L 132 179 L 121 179 Z M 121 169 " clip-rule="nonzero"/></clipPath><clipPath id="021481b401"><path d="M 148.9375 128.199219 L 159.597656 191.050781 L 109.3125 199.578125 L 98.65625 136.726562 Z M 148.9375 128.199219 " clip-rule="nonzero"/></clipPath><clipPath id="8231d1f38f"><path d="M 148.9375 128.199219 L 159.597656 191.050781 L 109.3125 199.578125 L 98.65625 136.726562 Z M 148.9375 128.199219 " clip-rule="nonzero"/></clipPath><clipPath id="84a8668f62"><path d="M 123 143 L 128 143 L 128 147 L 123 147 Z M 123 143 " clip-rule="nonzero"/></clipPath><clipPath id="efc41ba2a7"><path d="M 148.9375 128.199219 L 159.597656 191.050781 L 109.3125 199.578125 L 98.65625 136.726562 Z M 148.9375 128.199219 " clip-rule="nonzero"/></clipPath><clipPath id="82fddb592f"><path d="M 148.9375 128.199219 L 159.597656 191.050781 L 109.3125 199.578125 L 98.65625 136.726562 Z M 148.9375 128.199219 " clip-rule="nonzero"/></clipPath><clipPath id="9c487df731"><path d="M 127 160 L 129 160 L 129 162 L 127 162 Z M 127 160 " clip-rule="nonzero"/></clipPath><clipPath id="1ad0f6688b"><path d="M 148.9375 128.199219 L 159.597656 191.050781 L 109.3125 199.578125 L 98.65625 136.726562 Z M 148.9375 128.199219 " clip-rule="nonzero"/></clipPath><clipPath id="aa2af4dd7d"><path d="M 148.9375 128.199219 L 159.597656 191.050781 L 109.3125 199.578125 L 98.65625 136.726562 Z M 148.9375 128.199219 " clip-rule="nonzero"/></clipPath><clipPath id="a16dbb006d"><path d="M 127 163 L 130 163 L 130 165 L 127 165 Z M 127 163 " clip-rule="nonzero"/></clipPath><clipPath id="0dd3bbf498"><path d="M 148.9375 128.199219 L 159.597656 191.050781 L 109.3125 199.578125 L 98.65625 136.726562 Z M 148.9375 128.199219 " clip-rule="nonzero"/></clipPath><clipPath id="7c40f8381c"><path d="M 148.9375 128.199219 L 159.597656 191.050781 L 109.3125 199.578125 L 98.65625 136.726562 Z M 148.9375 128.199219 " clip-rule="nonzero"/></clipPath><clipPath id="f81c55d65a"><path d="M 128 165 L 130 165 L 130 168 L 128 168 Z M 128 165 " clip-rule="nonzero"/></clipPath><clipPath id="4aa31f3bc5"><path d="M 148.9375 128.199219 L 159.597656 191.050781 L 109.3125 199.578125 L 98.65625 136.726562 Z M 148.9375 128.199219 " clip-rule="nonzero"/></clipPath><clipPath id="c3ad015a63"><path d="M 148.9375 128.199219 L 159.597656 191.050781 L 109.3125 199.578125 L 98.65625 136.726562 Z M 148.9375 128.199219 " clip-rule="nonzero"/></clipPath><clipPath id="36b835c399"><path d="M 129 180 L 134 180 L 134 184 L 129 184 Z M 129 180 " clip-rule="nonzero"/></clipPath><clipPath id="56b421c19d"><path d="M 148.9375 128.199219 L 159.597656 191.050781 L 109.3125 199.578125 L 98.65625 136.726562 Z M 148.9375 128.199219 " clip-rule="nonzero"/></clipPath><clipPath id="ec670f0943"><path d="M 148.9375 128.199219 L 159.597656 191.050781 L 109.3125 199.578125 L 98.65625 136.726562 Z M 148.9375 128.199219 " clip-rule="nonzero"/></clipPath><clipPath id="2741c7a35c"><path d="M 126 164 L 128 164 L 128 166 L 126 166 Z M 126 164 " clip-rule="nonzero"/></clipPath><clipPath id="dd52c50d84"><path d="M 148.9375 128.199219 L 159.597656 191.050781 L 109.3125 199.578125 L 98.65625 136.726562 Z M 148.9375 128.199219 " clip-rule="nonzero"/></clipPath><clipPath id="2144ab6119"><path d="M 148.9375 128.199219 L 159.597656 191.050781 L 109.3125 199.578125 L 98.65625 136.726562 Z M 148.9375 128.199219 " clip-rule="nonzero"/></clipPath><clipPath id="262ced3aa1"><path d="M 126 161 L 128 161 L 128 164 L 126 164 Z M 126 161 " clip-rule="nonzero"/></clipPath><clipPath id="e5cb909146"><path d="M 148.9375 128.199219 L 159.597656 191.050781 L 109.3125 199.578125 L 98.65625 136.726562 Z M 148.9375 128.199219 " clip-rule="nonzero"/></clipPath><clipPath id="134a331e84"><path d="M 148.9375 128.199219 L 159.597656 191.050781 L 109.3125 199.578125 L 98.65625 136.726562 Z M 148.9375 128.199219 " clip-rule="nonzero"/></clipPath><clipPath id="7c8fa25551"><path d="M 124 171 L 130 171 L 130 176 L 124 176 Z M 124 171 " clip-rule="nonzero"/></clipPath><clipPath id="97aa2e7ff3"><path d="M 148.9375 128.199219 L 159.597656 191.050781 L 109.3125 199.578125 L 98.65625 136.726562 Z M 148.9375 128.199219 " clip-rule="nonzero"/></clipPath><clipPath id="9e96d1fe51"><path d="M 148.9375 128.199219 L 159.597656 191.050781 L 109.3125 199.578125 L 98.65625 136.726562 Z M 148.9375 128.199219 " clip-rule="nonzero"/></clipPath><clipPath id="76cb597067"><path d="M 121 152 L 126 152 L 126 157 L 121 157 Z M 121 152 " clip-rule="nonzero"/></clipPath><clipPath id="854ee98bb2"><path d="M 148.9375 128.199219 L 159.597656 191.050781 L 109.3125 199.578125 L 98.65625 136.726562 Z M 148.9375 128.199219 " clip-rule="nonzero"/></clipPath><clipPath id="0e930d29fa"><path d="M 148.9375 128.199219 L 159.597656 191.050781 L 109.3125 199.578125 L 98.65625 136.726562 Z M 148.9375 128.199219 " clip-rule="nonzero"/></clipPath><clipPath id="7f426e66c4"><path d="M 122 163 L 125 163 L 125 167 L 122 167 Z M 122 163 " clip-rule="nonzero"/></clipPath><clipPath id="56132b4976"><path d="M 148.9375 128.199219 L 159.597656 191.050781 L 109.3125 199.578125 L 98.65625 136.726562 Z M 148.9375 128.199219 " clip-rule="nonzero"/></clipPath><clipPath id="1f2acf9e92"><path d="M 148.9375 128.199219 L 159.597656 191.050781 L 109.3125 199.578125 L 98.65625 136.726562 Z M 148.9375 128.199219 " clip-rule="nonzero"/></clipPath><clipPath id="e4103761df"><path d="M 100 145 L 121 145 L 121 191 L 100 191 Z M 100 145 " clip-rule="nonzero"/></clipPath><clipPath id="7ce7910a89"><path d="M 148.9375 128.199219 L 159.597656 191.050781 L 109.3125 199.578125 L 98.65625 136.726562 Z M 148.9375 128.199219 " clip-rule="nonzero"/></clipPath><clipPath id="659d437d41"><path d="M 148.9375 128.199219 L 159.597656 191.050781 L 109.3125 199.578125 L 98.65625 136.726562 Z M 148.9375 128.199219 " clip-rule="nonzero"/></clipPath><clipPath id="bc82feb0c4"><path d="M 101 135 L 127 135 L 127 151 L 101 151 Z M 101 135 " clip-rule="nonzero"/></clipPath><clipPath id="b25a732d03"><path d="M 148.9375 128.199219 L 159.597656 191.050781 L 109.3125 199.578125 L 98.65625 136.726562 Z M 148.9375 128.199219 " clip-rule="nonzero"/></clipPath><clipPath id="51f4f64dc2"><path d="M 148.9375 128.199219 L 159.597656 191.050781 L 109.3125 199.578125 L 98.65625 136.726562 Z M 148.9375 128.199219 " clip-rule="nonzero"/></clipPath><clipPath id="9ff887982a"><path d="M 160 119 L 211 119 L 211 202 L 160 202 Z M 160 119 " clip-rule="nonzero"/></clipPath><clipPath id="a834302464"><path d="M 148.058594 190.515625 L 168.339844 112.097656 L 215.539062 124.304688 L 195.257812 202.722656 Z M 148.058594 190.515625 " clip-rule="nonzero"/></clipPath><clipPath id="75ddc30514"><path d="M 148.058594 190.515625 L 168.339844 112.097656 L 215.539062 124.304688 L 195.257812 202.722656 Z M 148.058594 190.515625 " clip-rule="nonzero"/></clipPath></defs><g clip-path="url(#23772695f9)"><path fill="#ffffff" d="M 97.117188 108.390625 L 153.253906 108.390625 L 153.253906 206.632812 L 97.117188 206.632812 Z M 97.117188 108.390625 " fill-opacity="1" fill-rule="nonzero"/></g><g fill="#dc3c8b" fill-opacity="1"><g transform="translate(67.122276, 243.82979)"><g><path d="M 2.46875 0 L 2.46875 -28.328125 L 13.640625 -28.328125 C 15.785156 -28.328125 17.613281 -27.914062 19.125 -27.09375 C 20.644531 -26.28125 21.800781 -25.148438 22.59375 -23.703125 C 23.394531 -22.265625 23.796875 -20.609375 23.796875 -18.734375 C 23.796875 -16.847656 23.390625 -15.1875 22.578125 -13.75 C 21.765625 -12.320312 20.585938 -11.203125 19.046875 -10.390625 C 17.515625 -9.585938 15.660156 -9.1875 13.484375 -9.1875 L 8.453125 -9.1875 L 8.453125 0 Z M 8.453125 -13.984375 L 12.515625 -13.984375 C 14.234375 -13.984375 15.515625 -14.421875 16.359375 -15.296875 C 17.203125 -16.179688 17.625 -17.328125 17.625 -18.734375 C 17.625 -20.140625 17.203125 -21.273438 16.359375 -22.140625 C 15.515625 -23.003906 14.222656 -23.4375 12.484375 -23.4375 L 8.453125 -23.4375 Z M 8.453125 -13.984375 "/></g></g></g><g fill="#dc3c8b" fill-opacity="1"><g transform="translate(96.978871, 243.82979)"><g><path d="M 8.453125 -28.328125 L 8.453125 0 L 2.46875 0 L 2.46875 -28.328125 Z M 8.453125 -28.328125 "/></g></g></g><g fill="#dc3c8b" fill-opacity="1"><g transform="translate(112.538314, 243.82979)"><g><path d="M 26.15625 -28.328125 L 26.15625 0 L 20.984375 0 L 8.65625 -17.828125 L 8.453125 -17.828125 L 8.453125 0 L 2.46875 0 L 2.46875 -28.328125 L 7.71875 -28.328125 L 19.953125 -10.515625 L 20.203125 -10.515625 L 20.203125 -28.328125 Z M 26.15625 -28.328125 "/></g></g></g><g fill="#dc3c8b" fill-opacity="1"><g transform="translate(145.796352, 243.82979)"><g><path d="M 21.25 -19.171875 C 20.875 -20.503906 20.175781 -21.546875 19.15625 -22.296875 C 18.132812 -23.046875 16.851562 -23.421875 15.3125 -23.421875 C 13.144531 -23.421875 11.390625 -22.617188 10.046875 -21.015625 C 8.703125 -19.421875 8.03125 -17.144531 8.03125 -14.1875 C 8.03125 -11.226562 8.691406 -8.941406 10.015625 -7.328125 C 11.335938 -5.710938 13.125 -4.90625 15.375 -4.90625 C 17.363281 -4.90625 18.925781 -5.421875 20.0625 -6.453125 C 21.195312 -7.492188 21.785156 -8.894531 21.828125 -10.65625 L 15.734375 -10.65625 L 15.734375 -15.15625 L 27.59375 -15.15625 L 27.59375 -11.59375 C 27.59375 -9.113281 27.066406 -6.972656 26.015625 -5.171875 C 24.960938 -3.378906 23.515625 -2.003906 21.671875 -1.046875 C 19.835938 -0.0859375 17.726562 0.390625 15.34375 0.390625 C 12.6875 0.390625 10.351562 -0.195312 8.34375 -1.375 C 6.332031 -2.550781 4.765625 -4.222656 3.640625 -6.390625 C 2.523438 -8.566406 1.96875 -11.148438 1.96875 -14.140625 C 1.96875 -17.203125 2.550781 -19.820312 3.71875 -22 C 4.894531 -24.175781 6.484375 -25.835938 8.484375 -26.984375 C 10.484375 -28.140625 12.726562 -28.71875 15.21875 -28.71875 C 17.351562 -28.71875 19.285156 -28.3125 21.015625 -27.5 C 22.753906 -26.6875 24.175781 -25.5625 25.28125 -24.125 C 26.394531 -22.695312 27.078125 -21.046875 27.328125 -19.171875 Z M 21.25 -19.171875 "/></g></g></g><g fill="#dc3c8b" fill-opacity="1"><g transform="translate(180.049937, 243.82979)"><g><path d="M 2.46875 0 L 2.46875 -28.328125 L 13.640625 -28.328125 C 15.785156 -28.328125 17.613281 -27.914062 19.125 -27.09375 C 20.644531 -26.28125 21.800781 -25.148438 22.59375 -23.703125 C 23.394531 -22.265625 23.796875 -20.609375 23.796875 -18.734375 C 23.796875 -16.847656 23.390625 -15.1875 22.578125 -13.75 C 21.765625 -12.320312 20.585938 -11.203125 19.046875 -10.390625 C 17.515625 -9.585938 15.660156 -9.1875 13.484375 -9.1875 L 8.453125 -9.1875 L 8.453125 0 Z M 8.453125 -13.984375 L 12.515625 -13.984375 C 14.234375 -13.984375 15.515625 -14.421875 16.359375 -15.296875 C 17.203125 -16.179688 17.625 -17.328125 17.625 -18.734375 C 17.625 -20.140625 17.203125 -21.273438 16.359375 -22.140625 C 15.515625 -23.003906 14.222656 -23.4375 12.484375 -23.4375 L 8.453125 -23.4375 Z M 8.453125 -13.984375 "/></g></g></g><g fill="#dc3c8b" fill-opacity="1"><g transform="translate(209.906541, 243.82979)"><g><path d="M 28.5 -14.171875 C 28.5 -11.078125 27.914062 -8.445312 26.75 -6.28125 C 25.582031 -4.113281 24 -2.457031 22 -1.3125 C 20 -0.175781 17.742188 0.390625 15.234375 0.390625 C 12.710938 0.390625 10.453125 -0.179688 8.453125 -1.328125 C 6.453125 -2.472656 4.867188 -4.128906 3.703125 -6.296875 C 2.546875 -8.472656 1.96875 -11.097656 1.96875 -14.171875 C 1.96875 -17.253906 2.546875 -19.878906 3.703125 -22.046875 C 4.867188 -24.210938 6.453125 -25.863281 8.453125 -27 C 10.453125 -28.144531 12.710938 -28.71875 15.234375 -28.71875 C 17.742188 -28.71875 20 -28.144531 22 -27 C 24 -25.863281 25.582031 -24.210938 26.75 -22.046875 C 27.914062 -19.878906 28.5 -17.253906 28.5 -14.171875 Z M 22.421875 -14.171875 C 22.421875 -17.171875 21.765625 -19.460938 20.453125 -21.046875 C 19.148438 -22.628906 17.410156 -23.421875 15.234375 -23.421875 C 13.054688 -23.421875 11.3125 -22.628906 10 -21.046875 C 8.6875 -19.460938 8.03125 -17.171875 8.03125 -14.171875 C 8.03125 -11.171875 8.6875 -8.875 10 -7.28125 C 11.3125 -5.695312 13.054688 -4.90625 15.234375 -4.90625 C 17.410156 -4.90625 19.148438 -5.695312 20.453125 -7.28125 C 21.765625 -8.875 22.421875 -11.171875 22.421875 -14.171875 Z M 22.421875 -14.171875 "/></g></g></g><g fill="#dc3c8b" fill-opacity="1"><g transform="translate(244.989731, 243.82979)"><g><path d="M 26.15625 -28.328125 L 26.15625 0 L 20.984375 0 L 8.65625 -17.828125 L 8.453125 -17.828125 L 8.453125 0 L 2.46875 0 L 2.46875 -28.328125 L 7.71875 -28.328125 L 19.953125 -10.515625 L 20.203125 -10.515625 L 20.203125 -28.328125 Z M 26.15625 -28.328125 "/></g></g></g><g fill="#dc3c8b" fill-opacity="1"><g transform="translate(278.247776, 243.82979)"><g><path d="M 21.25 -19.171875 C 20.875 -20.503906 20.175781 -21.546875 19.15625 -22.296875 C 18.132812 -23.046875 16.851562 -23.421875 15.3125 -23.421875 C 13.144531 -23.421875 11.390625 -22.617188 10.046875 -21.015625 C 8.703125 -19.421875 8.03125 -17.144531 8.03125 -14.1875 C 8.03125 -11.226562 8.691406 -8.941406 10.015625 -7.328125 C 11.335938 -5.710938 13.125 -4.90625 15.375 -4.90625 C 17.363281 -4.90625 18.925781 -5.421875 20.0625 -6.453125 C 21.195312 -7.492188 21.785156 -8.894531 21.828125 -10.65625 L 15.734375 -10.65625 L 15.734375 -15.15625 L 27.59375 -15.15625 L 27.59375 -11.59375 C 27.59375 -9.113281 27.066406 -6.972656 26.015625 -5.171875 C 24.960938 -3.378906 23.515625 -2.003906 21.671875 -1.046875 C 19.835938 -0.0859375 17.726562 0.390625 15.34375 0.390625 C 12.6875 0.390625 10.351562 -0.195312 8.34375 -1.375 C 6.332031 -2.550781 4.765625 -4.222656 3.640625 -6.390625 C 2.523438 -8.566406 1.96875 -11.148438 1.96875 -14.140625 C 1.96875 -17.203125 2.550781 -19.820312 3.71875 -22 C 4.894531 -24.175781 6.484375 -25.835938 8.484375 -26.984375 C 10.484375 -28.140625 12.726562 -28.71875 15.21875 -28.71875 C 17.351562 -28.71875 19.285156 -28.3125 21.015625 -27.5 C 22.753906 -26.6875 24.175781 -25.5625 25.28125 -24.125 C 26.394531 -22.695312 27.078125 -21.046875 27.328125 -19.171875 Z M 21.25 -19.171875 "/></g></g></g><g clip-path="url(#33f0d48e32)"><path fill="#ffffff" d="M 159.574219 108.390625 L 215.710938 108.390625 L 215.710938 206.632812 L 159.574219 206.632812 Z M 159.574219 108.390625 " fill-opacity="1" fill-rule="nonzero"/></g><g clip-path="url(#8731a1b20d)"><path fill="#ffffff" d="M 221.746094 108.390625 L 277.882812 108.390625 L 277.882812 206.632812 L 221.746094 206.632812 Z M 221.746094 108.390625 " fill-opacity="1" fill-rule="nonzero"/></g><g clip-path="url(#d298f4905d)"><g clip-path="url(#d408293f97)"><g clip-path="url(#fc2f2b4c04)"><path fill="#dc3c8b" d="M 216.78125 158.636719 C 217.125 158.910156 217.441406 159.214844 217.726562 159.550781 C 218.011719 159.886719 218.261719 160.246094 218.476562 160.628906 C 218.6875 161.015625 218.863281 161.414062 219 161.835938 C 219.132812 162.253906 219.226562 162.679688 219.277344 163.117188 C 219.328125 163.554688 219.335938 163.992188 219.300781 164.429688 C 219.265625 164.871094 219.1875 165.300781 219.066406 165.722656 C 218.945312 166.148438 218.785156 166.554688 218.585938 166.945312 C 218.382812 167.335938 218.148438 167.707031 217.875 168.050781 C 217.601562 168.394531 217.296875 168.710938 216.960938 168.996094 C 216.625 169.28125 216.265625 169.53125 215.882812 169.742188 C 215.5 169.957031 215.097656 170.132812 214.679688 170.265625 C 214.257812 170.402344 213.832031 170.496094 213.394531 170.546875 C 212.957031 170.597656 212.519531 170.605469 212.082031 170.570312 C 211.644531 170.535156 211.210938 170.457031 210.789062 170.335938 C 210.367188 170.214844 209.957031 170.054688 209.566406 169.855469 C 209.175781 169.652344 208.808594 169.417969 208.460938 169.144531 C 208.117188 168.871094 207.800781 168.566406 207.515625 168.230469 C 207.234375 167.894531 206.984375 167.535156 206.769531 167.152344 C 206.554688 166.765625 206.378906 166.367188 206.246094 165.945312 C 206.109375 165.527344 206.015625 165.101562 205.964844 164.664062 C 205.914062 164.226562 205.910156 163.789062 205.945312 163.351562 C 205.980469 162.910156 206.058594 162.480469 206.175781 162.058594 C 206.296875 161.632812 206.457031 161.226562 206.660156 160.835938 C 206.859375 160.445312 207.097656 160.074219 207.371094 159.730469 C 207.644531 159.386719 207.945312 159.070312 208.28125 158.785156 C 208.617188 158.5 208.976562 158.25 209.359375 158.039062 C 209.746094 157.824219 210.148438 157.648438 210.566406 157.515625 C 210.984375 157.378906 211.414062 157.285156 211.847656 157.234375 C 212.285156 157.183594 212.722656 157.175781 213.164062 157.210938 C 213.601562 157.246094 214.03125 157.324219 214.457031 157.445312 C 214.878906 157.566406 215.285156 157.726562 215.675781 157.925781 C 216.070312 158.128906 216.4375 158.363281 216.78125 158.636719 Z M 216.78125 158.636719 " fill-opacity="1" fill-rule="nonzero"/></g></g></g><g clip-path="url(#60a5b6f922)"><g clip-path="url(#6f32576976)"><g clip-path="url(#0631c3113b)"><path fill="#dc3c8b" d="M 233.492188 173.152344 L 269.726562 168.945312 C 267.855469 171.308594 265.25 173.519531 262.589844 175.261719 C 261.496094 176.101562 258.058594 179.363281 258.125 181.980469 C 258.835938 188.097656 261.011719 194.523438 261.339844 197.34375 C 261.667969 200.167969 259.269531 202.117188 255.035156 202.609375 C 251.269531 203.046875 248.019531 201.753906 247.691406 198.929688 C 247.835938 196.050781 248.21875 189.089844 247.769531 183.179688 C 247.441406 180.355469 242.617188 177.816406 241.882812 177.664062 C 238.6875 176.84375 235.855469 175.023438 233.492188 173.152344 Z M 246.0625 123.285156 C 228.390625 125.097656 221.667969 141.140625 223.097656 155.519531 C 223.699219 160.695312 225.710938 165.710938 229.234375 169.355469 L 273 164.273438 C 275.332031 159.710938 276.40625 154.578125 275.804688 149.402344 C 273.902344 135.074219 263.683594 121 246.0625 123.285156 Z M 246.0625 123.285156 " fill-opacity="1" fill-rule="nonzero"/></g></g></g><g clip-path="url(#bbbb3177a3)"><g clip-path="url(#2cb8820cf9)"><g clip-path="url(#7d4f6f3d2e)"><path fill="#dc3c8b" d="M 147.824219 159.675781 C 147.792969 159.679688 147.78125 159.699219 147.785156 159.730469 L 148.050781 161.367188 C 148.058594 161.402344 148.078125 161.421875 148.117188 161.414062 C 148.128906 161.414062 148.144531 161.410156 148.15625 161.40625 C 149.910156 161.109375 151.671875 160.8125 153.445312 160.507812 C 153.960938 160.421875 154.300781 159.933594 154.15625 159.417969 C 153.9375 158.648438 153.113281 158.746094 152.445312 158.894531 Z M 147.824219 159.675781 " fill-opacity="1" fill-rule="nonzero"/></g></g></g><g clip-path="url(#2a96c64dc6)"><g clip-path="url(#99cbb3154b)"><g clip-path="url(#2db9408f1b)"><path fill="#dc3c8b" d="M 142.40625 159.789062 L 142.804688 162.109375 L 142.96875 163.078125 C 142.976562 163.109375 142.996094 163.121094 143.023438 163.117188 C 143.847656 162.972656 144.667969 162.824219 145.480469 162.679688 C 145.910156 162.605469 146.203125 162.507812 146.359375 162.390625 C 146.671875 162.164062 146.769531 161.832031 146.648438 161.390625 L 146.328125 159.601562 C 146.324219 159.574219 146.3125 159.546875 146.292969 159.527344 C 146.0625 159.277344 145.800781 159.175781 145.507812 159.222656 C 144.480469 159.394531 143.453125 159.566406 142.429688 159.75 C 142.414062 159.75 142.402344 159.765625 142.40625 159.789062 Z M 142.40625 159.789062 " fill-opacity="1" fill-rule="nonzero"/></g></g></g><g clip-path="url(#2836ba0154)"><g clip-path="url(#c963206979)"><g clip-path="url(#61cb8c302b)"><path fill="#dc3c8b" d="M 127.308594 135.417969 C 127.308594 135.425781 127.3125 135.425781 127.316406 135.425781 C 128.058594 135.515625 128.757812 135.675781 129.414062 135.914062 C 130.035156 136.136719 130.839844 136.488281 131.824219 136.96875 C 132.429688 137.261719 133.121094 137.742188 133.898438 138.410156 C 134.09375 138.542969 134.28125 138.691406 134.441406 138.859375 C 135.117188 139.519531 135.734375 140.234375 136.292969 140.992188 C 137.277344 142.429688 137.996094 143.953125 138.453125 145.558594 C 138.722656 146.519531 138.925781 147.585938 139.050781 148.757812 L 140.203125 147.386719 C 140.25 147.332031 140.292969 147.253906 140.328125 147.15625 C 140.355469 147.078125 140.363281 146.992188 140.351562 146.898438 C 139.953125 143.925781 138.660156 140.945312 136.617188 138.738281 C 135.292969 137.296875 133.769531 136.289062 132.042969 135.710938 C 131.070312 135.390625 129.980469 135.234375 128.773438 135.246094 L 127.308594 135.410156 C 127.3125 135.40625 127.308594 135.410156 127.308594 135.417969 Z M 127.308594 135.417969 " fill-opacity="1" fill-rule="nonzero"/></g></g></g><g clip-path="url(#d84c89a880)"><g clip-path="url(#86c08d1332)"><g clip-path="url(#a2e94b1d8b)"><path fill="#dc3c8b" d="M 143.914062 178.035156 C 144.03125 179.972656 143.78125 181.835938 143.152344 183.621094 C 142.882812 184.453125 142.53125 185.234375 142.09375 185.964844 C 141.664062 186.730469 141.167969 187.4375 140.601562 188.082031 C 139.628906 189.191406 138.578125 190.140625 137.289062 190.851562 C 137.105469 190.949219 136.917969 191.050781 136.738281 191.152344 C 136.734375 191.15625 136.734375 191.160156 136.734375 191.164062 C 136.734375 191.167969 136.742188 191.171875 136.746094 191.171875 C 137.550781 190.972656 138.402344 190.769531 139.121094 190.445312 C 139.734375 190.171875 140.320312 189.839844 140.878906 189.453125 C 142.636719 188.1875 143.898438 186.386719 144.632812 184.359375 C 145.617188 181.566406 145.824219 178.710938 145.261719 175.800781 C 144.816406 175.296875 144.058594 174.9375 143.445312 174.621094 C 143.683594 175.714844 143.84375 176.851562 143.914062 178.035156 Z M 143.914062 178.035156 " fill-opacity="1" fill-rule="nonzero"/></g></g></g><g clip-path="url(#e5c1c08fd4)"><g clip-path="url(#2e8b496c25)"><g clip-path="url(#04fc18a7dc)"><path fill="#dc3c8b" d="M 134.839844 150.273438 L 134.855469 150.363281 C 134.925781 150.796875 135.332031 151.089844 135.765625 151.019531 L 137.113281 150.800781 C 137.546875 150.730469 137.839844 150.324219 137.769531 149.894531 L 137.753906 149.800781 C 137.683594 149.371094 137.277344 149.074219 136.847656 149.144531 L 135.496094 149.363281 C 135.066406 149.433594 134.769531 149.839844 134.839844 150.273438 Z M 134.839844 150.273438 " fill-opacity="1" fill-rule="nonzero"/></g></g></g><g clip-path="url(#8eff46b4eb)"><g clip-path="url(#bfb4bef859)"><g clip-path="url(#77c5da38d0)"><path fill="#dc3c8b" d="M 138.949219 174.417969 L 138.964844 174.511719 C 139.039062 174.953125 139.453125 175.253906 139.898438 175.175781 L 141.1875 174.960938 C 141.628906 174.886719 141.929688 174.472656 141.851562 174.027344 L 141.835938 173.9375 C 141.761719 173.496094 141.347656 173.195312 140.902344 173.269531 L 139.613281 173.484375 C 139.171875 173.558594 138.875 173.976562 138.949219 174.417969 Z M 138.949219 174.417969 " fill-opacity="1" fill-rule="nonzero"/></g></g></g><g clip-path="url(#2f6baadbef)"><g clip-path="url(#9dde615052)"><g clip-path="url(#aa2b106bf4)"><path fill="#dc3c8b" d="M 141.40625 184.179688 C 141.800781 183.300781 141.972656 182.511719 142.082031 181.488281 C 142.121094 181.121094 142.171875 180.746094 142.230469 180.367188 C 142.183594 180.222656 142.179688 180.042969 142.226562 179.835938 C 142.230469 179.832031 142.230469 179.828125 142.226562 179.820312 C 142.226562 179.820312 142.222656 179.816406 142.21875 179.808594 C 142.214844 179.796875 142.207031 179.796875 142.207031 179.816406 C 142.113281 180.429688 142.011719 181.042969 141.910156 181.65625 C 141.664062 183.117188 141.128906 184.464844 140.3125 185.703125 L 139.664062 186.640625 C 140.34375 185.90625 140.925781 185.085938 141.40625 184.179688 Z M 141.40625 184.179688 " fill-opacity="1" fill-rule="nonzero"/></g></g></g><g clip-path="url(#c5bc09cbf0)"><g clip-path="url(#286b8e46e1)"><g clip-path="url(#680e95650f)"><path fill="#dc3c8b" d="M 140.066406 181.160156 C 140.058594 181.371094 140.011719 181.574219 139.925781 181.765625 C 139.835938 181.960938 139.71875 182.128906 139.5625 182.273438 C 139.410156 182.414062 139.234375 182.523438 139.039062 182.597656 C 138.84375 182.671875 138.640625 182.703125 138.429688 182.695312 C 138.21875 182.6875 138.019531 182.640625 137.832031 182.550781 C 137.640625 182.464844 137.472656 182.34375 137.332031 182.1875 C 137.191406 182.03125 137.082031 181.855469 137.007812 181.65625 C 136.9375 181.457031 136.90625 181.253906 136.914062 181.042969 C 136.921875 180.832031 136.96875 180.628906 137.054688 180.4375 C 137.144531 180.242188 137.265625 180.074219 137.417969 179.929688 C 137.570312 179.789062 137.746094 179.679688 137.941406 179.605469 C 138.140625 179.53125 138.339844 179.5 138.550781 179.507812 C 138.761719 179.515625 138.960938 179.5625 139.148438 179.652344 C 139.339844 179.738281 139.507812 179.859375 139.648438 180.015625 C 139.792969 180.171875 139.898438 180.347656 139.972656 180.546875 C 140.042969 180.746094 140.078125 180.949219 140.066406 181.160156 Z M 140.066406 181.160156 " fill-opacity="1" fill-rule="nonzero"/></g></g></g><g clip-path="url(#f3c6e818b4)"><g clip-path="url(#ccbad7a712)"><g clip-path="url(#34915f2825)"><path fill="#dc3c8b" d="M 129.945312 144.371094 C 129.875 144.492188 129.839844 144.695312 129.945312 144.785156 C 130.378906 145.171875 130.816406 145.527344 131.25 145.855469 C 131.308594 145.898438 131.382812 145.914062 131.453125 145.902344 L 133.160156 145.589844 C 133.183594 145.585938 133.199219 145.574219 133.21875 145.558594 C 133.558594 145.246094 133.738281 144.925781 133.769531 144.601562 C 133.804688 144.261719 133.710938 143.847656 133.496094 143.359375 C 133.324219 142.964844 132.84375 142.671875 132.386719 142.742188 C 131.898438 142.820312 131.414062 142.90625 130.9375 142.996094 C 130.894531 143.003906 130.851562 143.027344 130.824219 143.0625 C 130.492188 143.480469 130.199219 143.914062 129.945312 144.371094 Z M 129.945312 144.371094 " fill-opacity="1" fill-rule="nonzero"/></g></g></g><g clip-path="url(#19a892d49f)"><g clip-path="url(#3945b3118e)"><g clip-path="url(#9f8261af6f)"><path fill="#dc3c8b" d="M 130.378906 155.523438 C 130.335938 155.738281 130.355469 156.082031 130.441406 156.566406 C 131.210938 161.023438 131.96875 165.480469 132.71875 169.941406 C 132.796875 170.40625 132.898438 170.746094 133.019531 170.957031 C 133.457031 171.726562 134.257812 171.996094 135.414062 171.761719 C 137.382812 171.433594 139.394531 171.089844 141.441406 170.742188 C 142.269531 170.601562 142.628906 170 142.488281 169.191406 C 141.617188 164.125 140.761719 159.058594 139.925781 153.988281 C 139.832031 153.433594 139.570312 153.097656 139.144531 152.992188 C 138.949219 152.941406 138.578125 152.964844 138.035156 153.0625 C 136.175781 153.394531 134.324219 153.710938 132.476562 154.019531 C 131.558594 154.074219 130.566406 154.570312 130.378906 155.523438 Z M 130.378906 155.523438 " fill-opacity="1" fill-rule="nonzero"/></g></g></g><g clip-path="url(#9d04b83e5e)"><g clip-path="url(#5ffdd6b051)"><g clip-path="url(#9509651005)"><path fill="#dc3c8b" d="M 133.910156 176.265625 C 133.496094 176.378906 133.195312 176.617188 133.015625 176.976562 C 132.578125 177.820312 132.75 178.535156 133.535156 179.121094 C 133.824219 179.339844 134.128906 179.429688 134.449219 179.390625 C 136.914062 179.152344 136.160156 175.632812 133.910156 176.265625 Z M 133.910156 176.265625 " fill-opacity="1" fill-rule="nonzero"/></g></g></g><g clip-path="url(#cc090ec1e4)"><g clip-path="url(#0bad7e8117)"><g clip-path="url(#9fbec43590)"><path fill="#dc3c8b" d="M 136.839844 184.363281 C 136.410156 183.894531 135.859375 183.742188 135.191406 183.921875 C 134.441406 184.261719 134.074219 184.769531 134.085938 185.4375 C 134.105469 186.539062 134.972656 187.265625 136.085938 187.027344 C 137.242188 186.667969 137.675781 185.28125 136.839844 184.363281 Z M 136.839844 184.363281 " fill-opacity="1" fill-rule="nonzero"/></g></g></g><g clip-path="url(#cb8a698e70)"><g clip-path="url(#25bc191bfd)"><g clip-path="url(#afdc87025e)"><path fill="#dc3c8b" d="M 129.820312 142.257812 C 129.746094 141.738281 129.664062 141.226562 129.566406 140.71875 C 129.53125 140.539062 129.46875 140.390625 129.375 140.273438 C 128.953125 139.746094 128.40625 139.582031 127.730469 139.777344 C 127.113281 139.980469 126.515625 140.515625 126.636719 141.203125 C 126.722656 141.710938 126.8125 142.21875 126.898438 142.726562 C 126.902344 142.753906 126.917969 142.78125 126.941406 142.796875 C 127.347656 143.117188 127.796875 143.402344 128.28125 143.652344 C 128.410156 143.773438 128.558594 143.804688 128.726562 143.757812 C 128.832031 143.730469 128.933594 143.648438 129.019531 143.515625 C 129.28125 143.121094 129.539062 142.730469 129.800781 142.335938 C 129.820312 142.316406 129.824219 142.285156 129.820312 142.257812 Z M 129.820312 142.257812 " fill-opacity="1" fill-rule="nonzero"/></g></g></g><g clip-path="url(#b8da7edeaf)"><g clip-path="url(#83e33ea345)"><g clip-path="url(#8b87263f8e)"><path fill="#dc3c8b" d="M 121.417969 196.832031 C 124.210938 195.53125 126.984375 194.183594 129.78125 192.894531 C 131.636719 192.042969 133.476562 191.164062 135.308594 190.265625 C 135.3125 190.261719 135.316406 190.257812 135.316406 190.257812 C 135.3125 190.25 135.308594 190.246094 135.304688 190.246094 C 134.136719 190.472656 133.085938 190.246094 131.976562 189.925781 C 131.925781 189.910156 131.875 189.914062 131.824219 189.9375 C 129.613281 190.914062 127.421875 191.933594 125.25 192.996094 C 123.710938 193.75 122.160156 194.433594 120.605469 195.128906 C 119.304688 195.710938 117.886719 195.871094 116.351562 195.609375 C 116.042969 195.554688 115.804688 195.484375 115.632812 195.398438 C 115.621094 195.394531 115.617188 195.386719 115.613281 195.375 C 115.609375 195.355469 115.621094 195.335938 115.640625 195.332031 C 116.679688 195.148438 117.589844 194.8125 118.367188 194.3125 C 119.839844 193.371094 121.226562 192.324219 122.53125 191.167969 C 122.53125 191.164062 122.53125 191.160156 122.53125 191.15625 C 122.53125 191.152344 122.523438 191.148438 122.519531 191.152344 C 121.226562 191.828125 119.890625 192.402344 118.503906 192.882812 C 117.828125 193.113281 116.992188 193.300781 116 193.441406 C 115.035156 193.578125 113.589844 193.59375 112.890625 192.902344 C 112.585938 192.496094 112.472656 192.011719 112.550781 191.449219 C 112.664062 190.597656 112.855469 189.890625 113.214844 189.082031 C 114.417969 186.421875 116.289062 184 118.378906 181.992188 C 118.421875 181.949219 118.484375 181.835938 118.519531 181.78125 C 118.5625 181.722656 118.550781 181.714844 118.496094 181.757812 C 117.792969 182.261719 117 182.648438 116.25 183.09375 C 112.726562 185.1875 109.496094 188.460938 110.292969 192.9375 C 110.328125 193.140625 110.429688 193.441406 110.597656 193.835938 C 111.609375 196.339844 114.519531 197.683594 117.070312 197.789062 C 118.542969 197.851562 120.078125 197.453125 121.417969 196.832031 Z M 121.417969 196.832031 " fill-opacity="1" fill-rule="nonzero"/></g></g></g><g clip-path="url(#9e5e00f76a)"><g clip-path="url(#9e87c95605)"><g clip-path="url(#5aca60237e)"><path fill="#dc3c8b" d="M 128.082031 149.25 C 128.042969 149.300781 128.078125 149.378906 128.183594 149.488281 C 128.671875 149.992188 129.292969 150.125 130.046875 149.890625 C 130.417969 149.71875 130.6875 149.4375 130.851562 149.042969 C 130.902344 148.921875 130.917969 148.789062 130.890625 148.640625 C 130.808594 148.117188 130.710938 147.597656 130.597656 147.078125 C 130.5625 146.925781 130.484375 146.800781 130.355469 146.707031 C 129.957031 146.40625 129.558594 146.101562 129.164062 145.800781 C 129.058594 145.71875 128.910156 145.75 128.808594 145.847656 C 128.679688 145.972656 128.582031 146.09375 128.519531 146.210938 L 127.769531 147.265625 C 127.789062 147.902344 127.894531 148.566406 128.082031 149.25 Z M 128.082031 149.25 " fill-opacity="1" fill-rule="nonzero"/></g></g></g><g clip-path="url(#4e8731b310)"><g clip-path="url(#aaf3c1a3c5)"><g clip-path="url(#953ef83342)"><path fill="#dc3c8b" d="M 121.261719 150.703125 C 119.984375 151.382812 119.160156 152.464844 118.792969 153.9375 C 118.386719 156.160156 119.417969 158.375 121.519531 159.308594 C 121.863281 159.492188 122.230469 159.613281 122.628906 159.675781 C 124.175781 159.910156 125.507812 159.574219 126.625 158.667969 C 128.492188 157.15625 128.882812 154.574219 127.695312 152.511719 C 126.410156 150.265625 123.539062 149.488281 121.261719 150.703125 Z M 125.976562 152.398438 C 127.164062 153.558594 127.515625 155.398438 126.527344 156.804688 C 126.101562 157.40625 125.546875 157.828125 124.867188 158.074219 C 124.242188 158.242188 123.824219 158.320312 123.605469 158.308594 C 122.304688 158.230469 121.332031 157.6875 120.671875 156.671875 C 119.800781 155.320312 120.183594 153.605469 121.246094 152.511719 C 122.613281 151.34375 124.601562 151.144531 125.976562 152.398438 Z M 125.976562 152.398438 " fill-opacity="1" fill-rule="nonzero"/></g></g></g><g clip-path="url(#8082f6c69e)"><g clip-path="url(#021481b401)"><g clip-path="url(#8231d1f38f)"><path fill="#dc3c8b" d="M 124.742188 169.507812 C 123.300781 170.152344 122.382812 171.300781 121.988281 172.9375 C 121.527344 175.117188 122.714844 177.292969 124.6875 178.25 C 126.007812 178.777344 127.304688 178.78125 128.578125 178.269531 C 129.289062 177.988281 129.875 177.511719 130.390625 176.949219 C 131.613281 175.613281 131.84375 173.496094 131.15625 171.855469 C 130.101562 169.332031 127.175781 168.410156 124.742188 169.507812 Z M 130.273438 173.660156 C 130.3125 175.320312 129.21875 176.707031 127.605469 177.160156 C 126.222656 177.398438 124.734375 176.90625 123.945312 175.71875 C 123.140625 174.519531 123.273438 173.191406 123.964844 171.984375 C 125.421875 170.070312 128.210938 169.847656 129.675781 171.90625 C 130.0625 172.449219 130.261719 173.03125 130.273438 173.660156 Z M 130.273438 173.660156 " fill-opacity="1" fill-rule="nonzero"/></g></g></g><g clip-path="url(#84a8668f62)"><g clip-path="url(#efc41ba2a7)"><g clip-path="url(#82fddb592f)"><path fill="#dc3c8b" d="M 123.925781 145.628906 C 124.082031 146.238281 124.199219 146.671875 124.742188 146.929688 C 124.851562 146.980469 124.976562 146.996094 125.113281 146.972656 C 125.582031 146.898438 126.042969 146.816406 126.5 146.738281 C 126.609375 146.71875 126.671875 146.679688 126.683594 146.625 C 127.082031 146.109375 127.355469 145.691406 127.5 145.375 C 127.625 145.101562 127.578125 144.882812 127.355469 144.71875 C 126.871094 144.359375 126.496094 144.070312 126.230469 143.855469 C 126.207031 143.835938 126.175781 143.832031 126.148438 143.835938 L 124.628906 144.066406 C 123.972656 144.355469 123.738281 144.875 123.925781 145.628906 Z M 123.925781 145.628906 " fill-opacity="1" fill-rule="nonzero"/></g></g></g><g clip-path="url(#9c487df731)"><g clip-path="url(#1ad0f6688b)"><g clip-path="url(#aa2af4dd7d)"><path fill="#dc3c8b" d="M 128.074219 160.25 C 127.710938 160.214844 127.386719 160.46875 127.347656 160.820312 C 127.3125 161.175781 127.582031 161.488281 127.945312 161.523438 C 128.308594 161.558594 128.632812 161.304688 128.671875 160.953125 C 128.703125 160.597656 128.4375 160.289062 128.074219 160.25 Z M 128.074219 160.25 " fill-opacity="1" fill-rule="nonzero"/></g></g></g><g clip-path="url(#a16dbb006d)"><g clip-path="url(#0dd3bbf498)"><g clip-path="url(#7c40f8381c)"><path fill="#dc3c8b" d="M 128.707031 164.339844 C 128.535156 164.398438 128.371094 164.386719 128.210938 164.308594 C 128.050781 164.226562 127.941406 164.101562 127.882812 163.933594 C 127.824219 163.765625 127.835938 163.597656 127.914062 163.4375 C 127.992188 163.277344 128.117188 163.167969 128.285156 163.109375 C 128.457031 163.050781 128.621094 163.0625 128.78125 163.140625 C 128.945312 163.21875 129.054688 163.34375 129.109375 163.515625 C 129.167969 163.683594 129.160156 163.847656 129.078125 164.011719 C 129 164.171875 128.875 164.28125 128.707031 164.339844 Z M 128.707031 164.339844 " fill-opacity="1" fill-rule="nonzero"/></g></g></g><g clip-path="url(#f81c55d65a)"><g clip-path="url(#4aa31f3bc5)"><g clip-path="url(#c3ad015a63)"><path fill="#dc3c8b" d="M 129.507812 166.148438 C 129.304688 165.875 128.898438 165.828125 128.601562 166.046875 C 128.308594 166.269531 128.230469 166.667969 128.4375 166.941406 C 128.636719 167.21875 129.042969 167.261719 129.339844 167.042969 C 129.636719 166.824219 129.710938 166.421875 129.507812 166.148438 Z M 129.507812 166.148438 " fill-opacity="1" fill-rule="nonzero"/></g></g></g><g clip-path="url(#36b835c399)"><g clip-path="url(#56b421c19d)"><g clip-path="url(#ec670f0943)"><path fill="#dc3c8b" d="M 131.917969 183.859375 C 132.433594 183.792969 132.820312 183.515625 133.078125 183.011719 C 133.605469 182.007812 133.078125 180.980469 131.996094 180.699219 C 131.300781 180.628906 130.761719 180.824219 130.378906 181.285156 C 129.386719 182.496094 130.445312 184.050781 131.917969 183.859375 Z M 131.53125 180.710938 C 131.515625 180.707031 131.496094 180.707031 131.480469 180.703125 C 131.496094 180.707031 131.515625 180.707031 131.53125 180.710938 Z M 131.480469 180.703125 C 131.464844 180.707031 131.445312 180.714844 131.429688 180.71875 C 131.445312 180.714844 131.464844 180.707031 131.480469 180.703125 Z M 131.410156 180.738281 C 131.414062 180.734375 131.425781 180.726562 131.429688 180.722656 C 131.425781 180.726562 131.414062 180.734375 131.410156 180.738281 Z M 131.402344 180.746094 C 131.402344 180.75 131.394531 180.753906 131.390625 180.757812 C 131.394531 180.753906 131.398438 180.75 131.402344 180.746094 Z M 131.367188 180.804688 Z M 131.382812 180.769531 C 131.382812 180.773438 131.378906 180.777344 131.378906 180.777344 C 131.378906 180.777344 131.382812 180.773438 131.382812 180.769531 Z M 131.363281 180.855469 Z M 131.363281 180.855469 " fill-opacity="1" fill-rule="nonzero"/></g></g></g><g clip-path="url(#2741c7a35c)"><g clip-path="url(#dd52c50d84)"><g clip-path="url(#2144ab6119)"><path fill="#dc3c8b" d="M 127.734375 165.671875 C 127.921875 165.375 127.847656 164.984375 127.5625 164.804688 C 127.277344 164.621094 126.894531 164.714844 126.699219 165.011719 C 126.511719 165.3125 126.589844 165.699219 126.871094 165.878906 C 127.160156 166.0625 127.546875 165.96875 127.734375 165.671875 Z M 127.734375 165.671875 " fill-opacity="1" fill-rule="nonzero"/></g></g></g><g clip-path="url(#262ced3aa1)"><g clip-path="url(#e5cb909146)"><g clip-path="url(#134a331e84)"><path fill="#dc3c8b" d="M 127.105469 163.074219 C 127.382812 162.871094 127.453125 162.492188 127.257812 162.222656 C 127.0625 161.957031 126.679688 161.902344 126.402344 162.105469 C 126.125 162.308594 126.054688 162.6875 126.25 162.957031 C 126.441406 163.222656 126.824219 163.273438 127.105469 163.074219 Z M 127.105469 163.074219 " fill-opacity="1" fill-rule="nonzero"/></g></g></g><g clip-path="url(#7c8fa25551)"><g clip-path="url(#97aa2e7ff3)"><g clip-path="url(#9e96d1fe51)"><path fill="#dc3c8b" d="M 126.203125 171.847656 C 124.9375 172.457031 124.332031 174.011719 125.316406 175.164062 C 125.804688 175.730469 126.457031 175.957031 127.273438 175.835938 C 127.742188 175.804688 128.164062 175.558594 128.53125 175.097656 C 129.910156 173.378906 128.199219 171.042969 126.203125 171.847656 Z M 126.203125 171.847656 " fill-opacity="1" fill-rule="nonzero"/></g></g></g><g clip-path="url(#76cb597067)"><g clip-path="url(#854ee98bb2)"><g clip-path="url(#0e930d29fa)"><path fill="#dc3c8b" d="M 121.953125 153.890625 C 121.207031 155.132812 121.839844 156.636719 123.273438 156.90625 C 123.640625 156.976562 124.003906 156.964844 124.371094 156.882812 C 126.21875 156.277344 126.375 153.839844 124.648438 152.980469 C 124.113281 152.710938 123.585938 152.699219 123.082031 152.9375 C 122.621094 153.011719 122.179688 153.511719 121.953125 153.890625 Z M 121.953125 153.890625 " fill-opacity="1" fill-rule="nonzero"/></g></g></g><g clip-path="url(#7f426e66c4)"><g clip-path="url(#56132b4976)"><g clip-path="url(#1f2acf9e92)"><path fill="#dc3c8b" d="M 122.09375 164.460938 C 122.023438 165.207031 122.3125 165.722656 122.960938 166.003906 C 123.253906 166.152344 123.59375 166.160156 123.984375 166.03125 C 124.371094 165.917969 124.652344 165.671875 124.828125 165.285156 C 125.238281 164.375 124.628906 163.382812 123.601562 163.308594 C 123.195312 163.296875 122.828125 163.4375 122.492188 163.730469 C 122.265625 163.929688 122.132812 164.175781 122.09375 164.460938 Z M 122.09375 164.460938 " fill-opacity="1" fill-rule="nonzero"/></g></g></g><g clip-path="url(#e4103761df)"><g clip-path="url(#7ce7910a89)"><g clip-path="url(#659d437d41)"><path fill="#dc3c8b" d="M 108.390625 190.785156 C 108.394531 190.738281 108.394531 190.691406 108.398438 190.644531 C 108.453125 189.144531 108.882812 187.828125 109.683594 186.535156 C 110.582031 185.089844 111.738281 183.867188 113.144531 182.863281 C 114.453125 181.933594 115.585938 181.300781 116.84375 180.566406 C 117.519531 180.175781 118.015625 179.835938 118.328125 179.554688 C 119.609375 178.402344 120.195312 176.953125 120.078125 175.199219 C 120.0625 174.96875 119.976562 174.375 119.8125 173.417969 C 118.917969 168.019531 118 162.621094 117.070312 157.230469 C 116.929688 156.417969 116.792969 155.835938 116.667969 155.480469 C 116.113281 153.9375 115.074219 152.859375 113.550781 152.253906 C 112.808594 151.957031 111.867188 151.871094 111.023438 151.738281 C 108.363281 151.324219 105.726562 150.519531 103.570312 148.851562 C 102.253906 147.828125 101.265625 146.558594 100.613281 145.035156 C 100.609375 145.03125 100.605469 145.027344 100.605469 145.027344 C 100.601562 145.027344 100.597656 145.03125 100.597656 145.035156 C 100.695312 145.773438 100.804688 146.558594 101.054688 147.234375 C 102.46875 151.070312 106.605469 152.621094 110.292969 153.140625 C 110.855469 153.222656 111.425781 153.308594 111.996094 153.402344 C 113.484375 153.640625 114.507812 154.402344 115.074219 155.695312 C 115.214844 156.015625 115.34375 156.507812 115.460938 157.164062 C 116.4375 162.777344 117.390625 168.390625 118.316406 174.011719 C 118.453125 174.84375 118.515625 175.441406 118.496094 175.796875 C 118.4375 176.898438 118 177.816406 117.1875 178.542969 C 116.925781 178.773438 116.421875 179.097656 115.675781 179.511719 C 113 180.988281 110.402344 182.460938 108.925781 185.289062 C 108.019531 187.03125 107.835938 188.855469 108.375 190.773438 C 108.375 190.777344 108.378906 190.773438 108.378906 190.777344 C 108.390625 190.792969 108.390625 190.789062 108.390625 190.785156 Z M 108.390625 190.785156 " fill-opacity="1" fill-rule="nonzero"/></g></g></g><g clip-path="url(#bc82feb0c4)"><g clip-path="url(#b25a732d03)"><g clip-path="url(#51f4f64dc2)"><path fill="#dc3c8b" d="M 107.445312 148.828125 C 108.273438 149.164062 109.042969 149.398438 109.765625 149.535156 C 110.894531 149.753906 112.023438 149.972656 113.152344 150.195312 C 113.171875 150.199219 113.175781 150.195312 113.160156 150.179688 C 112.992188 150.042969 112.753906 149.984375 112.617188 149.914062 C 111.800781 149.488281 110.957031 149.066406 110.207031 148.578125 C 109.007812 147.792969 107.863281 146.9375 106.773438 146.003906 C 106.25 145.558594 105.703125 144.984375 105.128906 144.28125 C 104.527344 143.542969 104.179688 142.738281 104.082031 141.851562 C 104.078125 141.800781 104.082031 141.738281 104.097656 141.667969 C 104.402344 141.179688 104.8125 140.828125 105.332031 140.601562 C 106.179688 140.242188 107.121094 140.007812 108.160156 139.910156 C 109.484375 139.78125 110.808594 139.765625 112.140625 139.855469 C 112.695312 139.890625 113.238281 139.964844 113.78125 140.078125 C 113.785156 140.082031 113.789062 140.078125 113.789062 140.074219 L 113.789062 140.050781 C 113.789062 140.050781 113.789062 140.046875 113.789062 140.046875 C 112.882812 139.710938 111.980469 139.304688 111.074219 139.054688 C 109.382812 138.578125 107.8125 138.230469 106.078125 138.40625 C 105.929688 138.421875 105.917969 138.390625 106.039062 138.304688 C 106.804688 137.777344 107.625 137.414062 108.5 137.214844 C 109.714844 136.933594 111.238281 137.035156 112.53125 137.167969 C 116.054688 137.523438 119.582031 137.867188 123.109375 138.199219 C 123.140625 138.199219 123.167969 138.191406 123.191406 138.175781 C 123.972656 137.5 125.195312 136.789062 126.246094 136.738281 C 126.261719 136.738281 126.269531 136.734375 126.277344 136.726562 C 126.300781 136.703125 126.292969 136.695312 126.265625 136.691406 C 124.90625 136.53125 123.066406 136.347656 120.742188 136.140625 C 118.234375 135.917969 114.21875 135.433594 110.523438 135.171875 C 109.761719 135.117188 109.164062 135.113281 108.726562 135.15625 C 107.027344 135.332031 105.507812 135.957031 104.175781 137.039062 C 102.789062 138.15625 101.964844 139.609375 101.695312 141.390625 C 101.648438 143.21875 102.230469 144.78125 103.433594 146.082031 C 104.503906 147.230469 105.953125 148.222656 107.445312 148.828125 Z M 104.699219 139.878906 C 104.699219 139.875 104.699219 139.867188 104.699219 139.863281 C 104.699219 139.867188 104.699219 139.871094 104.699219 139.878906 Z M 104.6875 139.902344 C 104.695312 139.898438 104.695312 139.890625 104.699219 139.882812 C 104.695312 139.890625 104.695312 139.898438 104.6875 139.902344 Z M 104.6875 139.839844 C 104.6875 139.835938 104.683594 139.835938 104.683594 139.835938 C 104.683594 139.835938 104.683594 139.835938 104.6875 139.839844 Z M 104.695312 139.855469 C 104.695312 139.851562 104.695312 139.847656 104.691406 139.847656 C 104.691406 139.851562 104.695312 139.851562 104.695312 139.855469 Z M 104.667969 139.828125 C 104.664062 139.828125 104.664062 139.824219 104.660156 139.828125 C 104.664062 139.828125 104.664062 139.828125 104.667969 139.828125 Z M 104.667969 139.828125 " fill-opacity="1" fill-rule="nonzero"/></g></g></g><g clip-path="url(#9ff887982a)"><g clip-path="url(#a834302464)"><g clip-path="url(#75ddc30514)"><path fill="#dc3c8b" d="M 181.664062 130.058594 L 165.035156 124.882812 L 171.039062 141.230469 L 160.976562 155.445312 L 178.378906 154.785156 C 182.5625 159.273438 188.40625 174.394531 188.40625 174.394531 C 188.363281 174.238281 184.429688 157.042969 180.539062 150.273438 L 169.777344 150.683594 L 176 141.890625 L 172.285156 131.78125 L 182.570312 134.980469 L 191.039062 128.324219 L 191.171875 139.09375 L 200.117188 145.09375 L 189.914062 148.546875 C 193.582031 176.140625 191.871094 201.796875 191.871094 201.796875 C 191.871094 201.796875 195.277344 184.324219 193.542969 151.992188 L 210.039062 146.40625 L 195.570312 136.710938 L 195.355469 119.296875 Z M 181.664062 130.058594 " fill-opacity="1" fill-rule="nonzero"/></g></g></g></svg>